<?xml version="1.0" encoding="UTF-8" standalone="no"?>
<!-- Created with Inkscape (http://www.inkscape.org/) -->

<svg
   xmlns:dc="http://purl.org/dc/elements/1.1/"
   xmlns:cc="http://creativecommons.org/ns#"
   xmlns:rdf="http://www.w3.org/1999/02/22-rdf-syntax-ns#"
   xmlns:svg="http://www.w3.org/2000/svg"
   xmlns="http://www.w3.org/2000/svg"
   xmlns:sodipodi="http://sodipodi.sourceforge.net/DTD/sodipodi-0.dtd"
   xmlns:inkscape="http://www.inkscape.org/namespaces/inkscape"
   version="1.1"
   id="svg2"
   xml:space="preserve"
   width="1821.3333"
   height="1024"
   viewBox="0 0 1821.3333 1024"
   sodipodi:docname="clubeamigo.svg"
   inkscape:version="0.92.4 5da689c313, 2019-01-14"><metadata
     id="metadata8"><rdf:RDF><cc:Work
         rdf:about=""><dc:format>image/svg+xml</dc:format><dc:type
           rdf:resource="http://purl.org/dc/dcmitype/StillImage" /><dc:title></dc:title></cc:Work></rdf:RDF></metadata><defs
     id="defs6"><clipPath
       clipPathUnits="userSpaceOnUse"
       id="clipPath22"><path
         d="M 0,768 H 1366 V 0 H 0 Z"
         id="path20"
         inkscape:connector-curvature="0" /></clipPath></defs><sodipodi:namedview
     pagecolor="#ffffff"
     bordercolor="#666666"
     borderopacity="1"
     objecttolerance="10"
     gridtolerance="10"
     guidetolerance="10"
     inkscape:pageopacity="0"
     inkscape:pageshadow="2"
     inkscape:window-width="810"
     inkscape:window-height="480"
     id="namedview4"
     showgrid="false"
     inkscape:zoom="0.21852124"
     inkscape:cx="910.66663"
     inkscape:cy="512"
     inkscape:window-x="0"
     inkscape:window-y="20"
     inkscape:window-maximized="0"
     inkscape:current-layer="g10" /><g
     id="g10"
     inkscape:groupmode="layer"
     inkscape:label="clubeamigo"
     transform="matrix(1.3333333,0,0,-1.3333333,0,1024)"><g
       id="g12"
       transform="translate(317.9214,198.1299)"><path
         d="m 0,0 141.235,358.106 -277.169,108.56 -141.234,-358.106 44.765,-168.83 89.256,-34.959 z"
         style="fill:#231f20;fill-opacity:1;fill-rule:nonzero;stroke:none"
         id="path14"
         inkscape:connector-curvature="0" /></g><g
       id="g16"><g
         id="g18"
         clip-path="url(#clipPath22)"><g
           id="g24"
           transform="translate(507.7051,527.5439)"><path
             d="M 0,0 C 2.032,0.871 6.243,1.197 12.635,0.979 19.023,0.761 23.597,0.143 26.356,-0.872 l 5.447,-1.743 c 4.499,-3.049 7.041,-4.574 7.625,-4.574 5.952,-4.649 9.367,-10.749 10.237,-18.297 0.872,-3.197 1.015,-6.1 0.436,-8.715 0,-0.87 -0.293,-2.76 -0.872,-5.662 l -2.178,-5.012 -2.614,-3.702 c -0.872,-0.147 -1.382,-0.218 -1.525,-0.218 -5.373,-0.871 -9.512,-0.979 -12.417,-0.327 -2.905,0.654 -5.445,2.213 -7.622,4.684 -0.436,0.871 -0.653,1.668 -0.653,2.396 0.142,0.725 0.36,1.378 0.653,1.961 l 1.088,3.485 c 1.885,4.646 1.742,8.567 -0.436,11.763 0,0.436 -0.729,1.231 -2.177,2.396 -1.454,1.161 -2.58,2.032 -3.377,2.613 -0.8,0.579 -2.216,0.654 -4.247,0.218 -3.485,-1.453 -6.464,-5.88 -8.931,-13.288 -2.907,-3.777 -4.939,-8.712 -6.1,-14.812 -1.742,-10.891 -2.614,-17.066 -2.614,-18.516 l -0.218,-4.792 v -1.96 c -0.292,-0.293 -0.146,-6.609 0.436,-18.951 0.143,-0.729 0.436,-1.743 0.871,-3.05 0.436,-1.6 1.09,-4.214 1.961,-7.842 l 2.832,-4.792 c 0.724,-0.436 1.668,-1.743 2.832,-3.921 0.724,0 1.307,-0.511 1.742,-1.525 1.015,-1.017 1.45,-1.6 1.307,-1.742 0.725,-0.147 1.814,-0.581 3.268,-1.308 3.921,-2.035 7.33,-1.599 10.238,1.308 1.014,1.013 2.287,2.429 3.812,4.246 1.525,1.815 2.685,3.268 3.484,4.357 0.798,1.09 2.07,2.141 3.812,3.159 4.792,3.629 8.931,3.486 12.417,-0.435 0.724,-1.165 0.834,-3.959 0.326,-8.387 -0.51,-4.432 -2.58,-9.04 -6.207,-13.831 -0.293,-0.873 -1.237,-2.288 -2.833,-4.249 -1.599,-1.961 -3.267,-3.52 -5.009,-4.685 -0.293,-1.012 -5.811,-1.742 -16.555,-2.178 -0.582,0 -1.742,0.148 -3.485,0.436 -1.6,-0.436 -3.741,-0.217 -6.427,0.653 -2.689,0.873 -4.176,1.309 -4.465,1.309 l -2.832,0.652 c -1.164,0 -2.324,0.365 -3.485,1.089 -1.164,0.727 -3.087,1.994 -5.773,3.813 -2.689,1.813 -4.758,3.303 -6.208,4.465 -4.357,3.486 -7.481,7.477 -9.367,11.981 -0.582,1.015 -0.946,2.43 -1.089,4.249 -0.146,1.813 -0.436,3.158 -0.872,4.029 -1.164,1.16 -1.708,3.05 -1.633,5.664 0.071,2.614 -0.108,5.806 -0.544,9.585 0,1.742 0.071,2.757 0.217,3.048 -0.728,0.726 -1.017,1.995 -0.87,3.813 0.142,1.814 0.217,4.319 0.217,7.515 0.436,0.871 0.617,3.448 0.545,7.732 -0.075,4.283 0.034,7.516 0.327,9.695 -0.583,1.307 -0.655,3.192 -0.219,5.663 l 0.219,6.534 c 0.143,2.615 0.795,5.372 1.96,8.279 0.142,1.306 0.436,2.866 0.872,4.683 0.434,1.814 2.32,5.48 5.662,11 0,1.161 1.091,2.614 3.268,4.357 0,0.579 0.579,1.45 1.743,2.614 1.161,1.161 2.468,2.614 3.921,4.357 2.032,2.468 4.282,4.282 6.753,5.446 C -4.502,-2.979 -2.178,-1.6 0,0"
             style="fill:#99602b;fill-opacity:1;fill-rule:nonzero;stroke:none"
             id="path26"
             inkscape:connector-curvature="0" /></g><g
           id="g28"
           transform="translate(575.7964,510.77)"><path
             d="m 0,0 1.525,12.852 0.219,6.753 c 0,1.886 0.36,3.339 1.089,4.357 l 2.178,3.05 c 3.92,3.049 6.46,4.792 7.625,5.228 1.16,0.436 2.866,0.398 5.118,-0.11 2.249,-0.51 3.596,-0.979 4.03,-1.415 l 2.397,-1.962 c 1.305,-0.728 1.961,-1.888 1.961,-3.484 0.724,-0.871 0.941,-1.525 0.652,-1.96 -0.872,-1.019 -2.325,-9.585 -4.355,-25.705 l -1.745,-29.625 -1.089,-5.881 c 0,-1.89 0.072,-2.978 0.22,-3.268 v -3.921 c -0.293,-2.907 -0.584,-4.721 -0.872,-5.446 0,-0.728 -0.146,-1.525 -0.436,-2.396 0.29,-0.293 0.436,-1.415 0.436,-3.376 0,-1.96 -0.217,-3.159 -0.653,-3.595 -0.293,-2.324 -0.436,-4.54 -0.436,-6.643 0,-2.108 0.181,-4.286 0.543,-6.535 0.362,-2.253 0.472,-4.465 0.329,-6.645 l 0.869,-8.277 v -3.267 c 0.291,-2.614 0.437,-4.721 0.437,-6.317 l 1.088,-11.327 0.873,-5.883 c 0.436,-2.466 0.252,-4.863 -0.546,-7.186 -0.798,-2.324 -1.997,-3.777 -3.593,-4.359 -4.504,-1.884 -9.443,-0.653 -14.814,3.703 H 1.308 c -1.017,1.165 -1.818,2.762 -2.397,4.792 -1.163,0.584 -1.67,1.597 -1.525,3.05 0.143,1.451 -0.145,2.757 -0.87,3.923 -0.729,1.16 -1.089,2.177 -1.089,3.049 0,1.885 -0.148,3.555 -0.436,5.009 l 0.217,1.744 c -0.436,0.436 -0.653,1.089 -0.653,1.959 l -0.436,3.922 v 1.743 c 0,1.16 -0.038,1.96 -0.11,2.396 -0.073,0.435 0.11,1.16 0.546,2.178 -0.436,0.579 -0.51,2.685 -0.219,6.316 0.872,11.182 1.308,18.877 1.308,23.091 l 0.217,5.228 v 6.317 c 0.143,3.486 0.252,7.913 0.328,13.288 0.072,5.371 0.327,8.278 0.761,8.714 l -0.217,1.96 c 0,3.485 0.546,8.241 1.635,14.268 C -0.543,-3.668 0,-0.436 0,0"
             style="fill:#99602b;fill-opacity:1;fill-rule:nonzero;stroke:none"
             id="path30"
             inkscape:connector-curvature="0" /></g><g
           id="g32"
           transform="translate(684.8857,454.5703)"><path
             d="m 0,0 0.217,-4.139 c 0,-0.436 0.436,-5.011 1.308,-13.724 v -2.614 c 0,-3.484 0.579,-8.712 1.743,-15.683 0,-3.05 1.524,-8.353 4.574,-15.902 0.724,-0.436 1.232,-1.454 1.525,-3.05 L 9.15,-57.29 c 0.288,-0.729 -0.076,-1.525 -1.09,-2.397 0,-1.013 -1.383,-1.525 -4.14,-1.525 -2.759,0 -4.501,-0.143 -5.228,-0.436 -0.727,-0.289 -1.887,-0.143 -3.484,0.436 -0.581,-0.288 -2.325,0.293 -5.228,1.744 -1.308,0.288 -2.325,1.596 -3.049,3.92 l -1.742,4.139 c 0,2.614 -0.73,4.934 -2.18,6.972 0,0.724 -0.327,2.033 -0.98,3.919 -0.653,1.887 -1.127,2.904 -1.415,3.051 -1.454,-5.81 -3.269,-10.313 -5.447,-13.506 0,-0.729 -0.437,-1.599 -1.306,-2.614 l -2.178,-4.139 c 0,-0.293 -0.655,-1.089 -1.961,-2.397 -0.872,-1.885 -2.833,-2.831 -5.881,-2.831 -2.761,0 -6.1,0.729 -10.022,2.178 -1.017,0.148 -3.048,0.796 -6.097,1.961 -0.872,-0.145 -2.217,0.109 -4.032,0.763 -1.816,0.653 -2.869,0.979 -3.157,0.979 -0.436,0.436 -1.454,1.16 -3.051,2.178 l -3.702,3.922 c -0.148,0.143 -0.403,0.834 -0.763,2.068 -0.365,1.235 -0.474,2.104 -0.326,2.614 0.142,0.508 0.142,1.27 0,2.288 -0.148,1.015 -0.077,2.032 0.217,3.049 0,2.904 0.29,6.1 0.872,9.585 -0.148,0.436 -0.219,0.943 -0.219,1.525 0,0.579 0.29,1.668 0.872,3.268 -0.146,0.725 -0.217,1.232 -0.217,1.524 l 1.089,8.496 c 0,2.033 0.071,3.485 0.216,4.357 v 3.267 c 0.144,0.579 0.22,1.378 0.22,2.396 l 1.089,10.457 c 0,1.595 0.071,2.614 0.216,3.049 v 2.179 c 0.291,0.288 0.436,1.45 0.436,3.485 l 1.961,6.098 1.526,2.615 c 0.142,0.578 0.941,1.233 2.394,1.961 2.321,1.449 5.664,2.177 10.022,2.177 1.742,-0.292 3.627,-1.017 5.662,-2.177 0.436,0.143 1.451,-0.147 3.05,-0.871 2.904,-1.308 3.05,-5.011 0.436,-11.11 -0.581,-3.921 -0.872,-5.956 -0.872,-6.099 -0.581,-1.164 -0.87,-2.108 -0.87,-2.832 -0.872,-4.65 -1.308,-7.118 -1.308,-7.407 0.579,0.579 0.362,-0.292 -0.653,-2.614 l -0.872,-8.06 c -1.018,-3.485 -1.454,-7.334 -1.306,-11.544 l -0.872,-2.833 c 0.143,-0.728 0.072,-2.978 -0.217,-6.752 0.289,-0.436 0.437,-0.946 0.437,-1.525 l 0.216,-1.742 c -0.145,-0.437 -0.073,-0.838 0.217,-1.199 0.291,-0.365 1.125,-0.51 2.507,-0.436 1.377,0.071 2.576,0.399 3.593,0.981 2.032,2.467 3.41,5.044 4.139,7.733 0.724,2.686 1.089,4.248 1.089,4.684 2.468,6.241 3.993,9.873 4.575,10.891 0.725,3.921 1.961,8.42 3.703,13.505 -0.293,0.726 -0.293,2.179 0,4.357 l 2.831,11.544 c 1.308,2.18 1.961,3.52 1.961,4.031 0,0.508 0.872,2.506 2.614,5.99 0,0.58 0.436,1.744 1.308,3.485 1.013,1.597 2.83,3.122 5.445,4.576 h 0.653 c 3.192,0.289 5.954,-0.147 8.277,-1.308 0.291,-0.582 0.436,-1.6 0.436,-3.049 0.291,-1.454 0.58,-4.068 0.873,-7.842 V 15.684 L -0.436,10.891 C 0.725,7.259 0.872,3.628 0,0"
             style="fill:#99602b;fill-opacity:1;fill-rule:nonzero;stroke:none"
             id="path34"
             inkscape:connector-curvature="0" /></g><g
           id="g36"
           transform="translate(760.5381,461.54)"><path
             d="m 0,0 c 0,5.371 -0.801,8.06 -2.397,8.06 -0.729,0.143 -1.67,0.143 -2.831,0 L -8.061,6.318 -7.844,6.1 C -8.861,5.082 -10.096,3.486 -11.547,1.307 h 0.219 c -1.453,-2.761 -2.542,-4.649 -3.267,-5.663 -1.453,-1.889 -2.18,-3.196 -2.18,-3.921 0,-0.729 -0.255,-1.818 -0.762,-3.268 -0.511,-1.453 -0.946,-2.542 -1.306,-3.268 -0.365,-0.728 -0.979,-2.797 -1.851,-6.207 -0.872,-3.415 -1.383,-5.919 -1.526,-7.515 l -0.872,-2.614 -1.961,-11.763 c -0.433,-1.307 -0.4,-3.632 0.11,-6.972 0.507,-3.341 1.053,-5.809 1.634,-7.406 1.597,-2.759 3.194,-4.213 4.792,-4.356 1.015,0.873 1.814,1.377 2.397,1.525 0.143,-0.293 0.653,-0.436 1.525,-0.436 0.87,0 1.523,0.217 1.959,0.653 h -0.217 c 3.338,3.629 5.736,6.536 7.189,8.714 1.449,2.178 2.321,5.589 2.614,10.238 l 0.653,5.01 c 0.724,2.179 1.088,4.717 1.088,7.625 l 1.09,15.465 c 0.724,3.628 0.872,6.535 0.436,8.713 v 1.09 z m -37.687,84.736 c 2.615,-0.728 4.066,-2.177 4.359,-4.355 0.433,-5.375 0.505,-9.367 0.217,-11.981 V 57.726 c -0.146,-1.164 0.109,-7.88 0.762,-20.15 0.653,-12.273 1.341,-22.473 2.069,-30.605 l 0.655,-0.218 c 1.596,3.774 2.646,6.025 3.157,6.753 0.507,0.725 1.015,1.668 1.525,2.832 0.507,1.16 1.487,2.102 2.94,2.832 0,0.289 0.763,1.197 2.287,2.722 1.526,1.525 2.614,2.505 3.268,2.941 0.655,0.436 1.162,0.762 1.524,0.98 0.362,0.218 0.945,0.471 1.744,0.763 0.796,0.289 1.271,0.507 1.416,0.653 2.033,0.579 3.267,0.872 3.703,0.872 l 2.833,0.871 h 1.306 c 0.725,0.142 1.597,-0.292 2.613,-1.307 0.725,-0.292 1.743,-0.217 3.051,0.217 2.613,0 5.009,-0.581 7.189,-1.741 2.177,-1.164 3.736,-2.506 4.682,-4.031 0.944,-1.525 2.287,-2.869 4.03,-4.029 0.142,-0.583 0.617,-1.274 1.418,-2.07 0.795,-0.8 1.415,-2.144 1.85,-4.03 1.449,-6.246 2.179,-14.887 2.179,-25.921 -0.293,-0.147 -0.403,-0.655 -0.327,-1.526 0.072,-0.87 0.072,-2.144 0,-3.812 -0.076,-1.67 -0.11,-3.015 -0.11,-4.03 l -0.872,-5.881 v -5.01 c -0.293,-0.436 -0.51,-1.889 -0.652,-4.357 l -3.051,-11.328 -3.05,-8.712 c 0,-0.436 -0.726,-1.889 -2.177,-4.358 C 10.815,-63.535 9.147,-64.77 7.842,-66.657 3.774,-68.834 1.16,-70.36 0,-71.232 c -3.05,-3.047 -6.753,-4.572 -11.111,-4.572 -0.581,0 -2.614,-0.291 -6.098,-0.873 -5.229,-0.872 -9.586,-0.359 -13.071,1.526 -1.742,0 -2.906,1.017 -3.485,3.049 -2.907,1.454 -4.503,2.107 -4.792,1.961 -0.872,-0.29 -1.708,-0.071 -2.506,0.653 -0.798,0.727 -1.344,1.599 -1.632,2.614 -1.165,0.289 -1.961,1.232 -2.398,2.831 -0.144,2.469 -0.728,4.647 -1.741,6.536 -1.018,1.885 -1.418,3.775 -1.199,5.664 0.218,1.885 0.072,3.954 -0.436,6.207 -0.51,2.251 -0.619,4.102 -0.326,5.555 -0.729,2.322 -1.237,4.864 -1.525,7.625 v 0.653 c 0.142,1.015 0.288,1.886 0.436,2.614 v 3.485 c 0.288,2.903 0.36,4.792 0.217,5.663 -0.437,0.873 -0.653,2.251 -0.653,4.139 -0.293,0.29 -0.436,0.654 -0.436,1.089 l -0.217,2.614 c -1.308,1.307 -1.166,3.268 0.436,5.882 0.577,0.871 0.577,3.339 0,7.406 L -53.37,16.12 c 0.142,0 0.219,0.436 0.219,1.307 l 0.216,2.396 c -1.453,6.242 -2.177,12.488 -2.177,18.733 -0.148,0.436 -0.219,1.232 -0.219,2.396 v 3.704 c -0.291,2.615 -0.255,5.588 0.109,8.931 0.363,3.338 0.398,6.825 0.11,10.456 -0.293,4.357 0.216,8.06 1.525,11.11 0.288,2.031 0.869,3.519 1.741,4.465 0.873,0.943 2.322,1.923 4.357,2.941 3.341,1.885 6.607,2.613 9.802,2.177"
             style="fill:#99602b;fill-opacity:1;fill-rule:nonzero;stroke:none"
             id="path38"
             inkscape:connector-curvature="0" /></g><g
           id="g40"
           transform="translate(837.0596,474.1748)"><path
             d="m 0,0 c -0.293,0.725 -1.272,1.014 -2.94,0.871 -1.67,-0.146 -2.941,-1.017 -3.813,-2.614 -5.954,-9.442 -9.147,-19.533 -9.583,-30.278 4.935,-1.165 9.148,1.014 12.633,6.535 C 0.799,-11.256 2.033,-2.76 0,0 m -16.989,-86.48 -2.178,0.436 -3.05,3.049 c -0.872,0 -1.525,0.365 -1.961,1.089 -1.599,1.89 -4.504,5.664 -8.715,11.328 l -3.266,11.981 c 0,2.321 -0.436,4.357 -1.308,6.099 -1.454,6.535 -2.323,10.272 -2.614,11.218 -0.291,0.944 -0.472,3.595 -0.543,7.952 -0.076,4.357 0.109,7.549 0.543,9.584 0.435,2.758 3.121,9.584 8.06,20.476 1.307,1.307 2.105,3.05 2.396,5.228 l 3.485,5.01 c 3.194,3.776 6.609,6.536 10.24,8.278 0,0.289 2.466,1.015 7.406,2.179 1.015,0.143 3.338,-0.218 6.97,-1.09 8.713,-2.035 14.161,-4.574 16.338,-7.624 l 0.653,-1.089 c 2.757,-3.921 4.356,-9.948 4.792,-18.08 -0.436,-3.632 -0.801,-6.681 -1.089,-9.148 -0.293,-2.473 -1.89,-6.971 -4.792,-13.506 -2.178,-4.068 -4.284,-7.336 -6.316,-9.803 -3.199,-2.325 -5.376,-3.485 -6.537,-3.485 -0.582,-0.293 -1.818,-0.436 -3.703,-0.436 h -5.01 c -0.434,0.143 -1.38,0.218 -2.832,0.218 -1.453,0 -3.559,0.361 -6.316,1.089 0,-3.196 0.905,-7.734 2.724,-13.614 1.812,-5.882 3.299,-9.476 4.465,-10.784 3.049,-2.323 5.444,-3.848 7.189,-4.575 1.741,-0.727 4.062,-0.836 6.97,-0.326 2.901,0.507 5.01,1.489 6.316,2.94 l 5.664,6.972 c 3.629,4.935 7.332,5.371 11.109,1.306 1.744,-1.887 2.43,-3.739 2.071,-5.554 -0.365,-1.818 -1.852,-5.412 -4.466,-10.782 -2.181,-3.487 -4.504,-6.389 -6.972,-8.714 -4.504,-2.321 -7.189,-3.484 -8.059,-3.484 -1.308,-0.143 -3.343,0.074 -6.1,0.653 -1.453,-0.725 -3.92,-0.653 -7.405,0.217 0,0.293 -0.403,0.474 -1.199,0.545 -0.801,0.074 -1.852,0.327 -3.159,0.763 l 0.435,0.216 h -2.613 l -6.098,3.268 z"
             style="fill:#99602b;fill-opacity:1;fill-rule:nonzero;stroke:none"
             id="path42"
             inkscape:connector-curvature="0" /></g><g
           id="g44"
           transform="translate(956.8633,453.0454)"><path
             d="m 0,0 c 0.29,0.288 1.994,0.616 5.12,0.979 3.122,0.361 6.786,1.635 10.999,3.813 0.144,0 0.071,1.743 -0.217,5.228 -0.435,6.1 -0.8,10.456 -1.089,13.069 -0.292,3.487 -0.581,5.954 -0.872,7.408 0,2.756 -1.088,8.494 -3.266,17.208 L 1.089,15.248 C -0.946,6.242 -1.742,0.724 -1.307,-1.307 Z m -29.406,-6.318 1.305,9.585 c 0,1.886 0.29,3.774 0.872,5.664 0,2.467 1.232,6.17 3.703,11.11 0,0.288 0.655,2.177 1.962,5.662 0,0.29 1.378,4.575 4.138,12.853 l 2.614,6.317 c 0,0.579 0.36,1.705 1.089,3.377 0.724,1.667 1.27,3.338 1.634,5.009 0.36,1.668 0.834,3.302 1.416,4.902 2.032,3.921 3.846,7.259 5.444,10.02 3.05,5.806 8.714,8.421 16.993,7.841 l 6.969,-0.652 c 4.359,-1.164 7.697,-2.396 10.023,-3.703 3.338,-1.307 5.587,-2.724 6.753,-4.249 1.16,-1.524 1.665,-4.029 1.522,-7.514 0.143,-1.743 0.579,-9.296 1.308,-22.655 0.724,-13.363 1.089,-20.116 1.089,-20.258 l 1.089,-9.367 c 0,-0.871 1.596,-11.328 4.792,-31.368 l 4.795,-15.249 c 2.901,-8.134 4.464,-12.383 4.681,-12.743 0.217,-0.364 0.834,-1.925 1.852,-4.682 1.596,-4.794 0.217,-7.985 -4.139,-9.586 -3.92,-0.579 -6.827,-0.217 -8.714,1.089 -0.727,0 -2.395,0.655 -5.009,1.961 -0.293,0.729 -1.127,1.415 -2.506,2.071 -1.38,0.653 -2.286,1.196 -2.722,1.632 -1.601,0.436 -3.05,2.685 -4.358,6.753 -0.433,0.29 -1.234,1.451 -2.395,3.486 -1.017,2.033 -1.308,3.703 -0.872,5.009 -1.017,1.308 -1.525,3.993 -1.525,8.061 -1.305,2.177 -1.96,5.588 -1.96,10.237 0,4.647 -0.728,8.278 -2.178,10.892 -7.406,-3.343 -15.322,-5.156 -23.743,-5.446 -1.601,0 -2.397,-0.293 -2.397,-0.871 0,-1.307 -0.436,-3.632 -1.306,-6.971 l -3.703,-23.961 c 1.449,-10.747 0.141,-16.408 -3.922,-16.992 -1.166,0 -3.088,-0.288 -5.774,-0.87 -2.687,-0.578 -4.898,-0.071 -6.643,1.525 -3.343,1.887 -5.7,3.81 -7.08,5.772 -1.381,1.96 -1.996,4.172 -1.85,6.643 0.142,2.032 0.507,6.39 1.089,13.072 0.29,0.288 0.397,1.923 0.326,4.9 -0.074,2.975 0.109,5.262 0.546,6.862 l 3.483,13.505 c 0.437,0.29 1.015,2.468 1.744,6.535 -0.147,0.29 -0.218,1.014 -0.218,2.178 z"
             style="fill:#99602b;fill-opacity:1;fill-rule:nonzero;stroke:none"
             id="path46"
             inkscape:connector-curvature="0" /></g><g
           id="g48"
           transform="translate(1027.0488,455.2231)"><path
             d="m 0,0 2.396,11.11 0.218,4.792 c 0.29,0.143 0.656,1.089 1.089,2.832 0.727,5.37 3.702,8.059 8.931,8.059 2.757,-0.146 5.735,-0.945 8.932,-2.395 1.162,0 2.031,-0.511 2.615,-1.525 0.724,-0.147 1.377,-0.583 1.959,-1.307 0.579,-0.73 0.655,-1.709 0.218,-2.942 -0.435,-1.235 -0.69,-2.253 -0.762,-3.049 C 25.52,14.775 25.122,12.199 24.397,7.842 22.362,-3.05 21.49,-10.384 21.783,-14.159 l 11.765,17.862 4.355,7.842 c 2.469,1.307 4.718,2.179 6.753,2.614 1.015,0 2.178,-0.217 3.487,-0.653 4.21,-0.583 6.316,-1.164 6.316,-1.743 L 57.073,10.02 C 58.814,7.985 59.721,6.317 59.794,5.01 59.865,3.703 59.721,2.431 59.36,1.199 58.996,-0.037 58.521,-1.6 57.942,-3.485 c 0,-0.146 -1.524,-8.424 -4.572,-24.833 l 8.712,18.733 2.18,2.832 c 0,1.307 1.449,4.064 4.356,8.278 l 2.178,3.921 c 0,0.436 0.507,1.16 1.524,2.178 0.437,0 0.872,0.654 1.306,1.961 1.888,2.903 3.63,4.717 5.23,5.446 2.467,0.871 5.517,1.014 9.148,0.435 l 2.834,-1.307 c 0.576,-1.164 1.013,-1.817 1.306,-1.96 h 0.652 C 94.54,10.599 95.193,8.784 94.757,6.753 94.176,3.993 93.885,2.178 93.885,1.307 L 91.49,-15.684 c -0.293,-0.293 -0.435,-0.729 -0.435,-1.307 -0.293,-0.293 -0.692,-4.214 -1.2,-11.762 -0.509,-7.554 -0.761,-14.959 -0.761,-22.22 l 0.219,-2.614 1.088,-3.703 1.526,-3.486 c 0.288,-1.742 -0.111,-3.229 -1.199,-4.465 -1.089,-1.232 -2.435,-1.852 -4.03,-1.852 -9.879,0.293 -15.25,3.415 -16.119,9.367 -0.436,0.727 -0.655,1.525 -0.655,2.397 0,0.872 -0.291,2.178 -0.87,3.92 v 2.397 l 0.436,3.267 c -0.436,0 -0.655,2.359 -0.655,7.08 0,4.717 0.143,7.441 0.436,8.168 0.579,2.468 0.872,5.082 0.872,7.843 -0.436,-0.582 -1.165,-1.454 -2.178,-2.615 -2.037,-2.324 -3.343,-4.067 -3.922,-5.228 l -4.14,-8.712 c -3.195,-7.263 -5.591,-11.91 -7.188,-13.942 -1.599,-2.035 -4.213,-2.978 -7.842,-2.831 -3.632,0.143 -5.881,0.653 -6.753,1.525 -1.163,0.577 -2.068,1.051 -2.721,1.415 -0.655,0.36 -0.911,1.995 -0.762,4.902 v 2.178 l 2.83,17.861 c 0.872,3.193 1.308,5.082 1.308,5.664 l 0.871,5.229 v 4.138 l -2.179,-3.05 -1.961,-3.921 c -0.581,-0.581 -0.869,-1.307 -0.869,-2.177 -0.73,-0.436 -1.309,-1.236 -1.744,-2.396 l -8.496,-17.209 c -2.47,-5.085 -3.848,-8.931 -4.138,-11.545 -0.872,-1.453 -1.926,-3.126 -3.157,-5.011 -1.238,-1.89 -2.543,-2.724 -3.922,-2.504 -1.383,0.216 -2.363,0.543 -2.941,0.979 -0.582,0.436 -0.801,1.015 -0.653,1.742 -1.744,-0.727 -3.126,-0.145 -4.139,1.744 l -5.228,6.753 c -0.583,0.436 -0.872,1.232 -0.872,2.395 0.436,1.744 0.436,3.193 0,4.355 -0.436,1.164 -0.581,2.106 -0.436,2.834 -0.293,1.307 -0.436,3.121 -0.436,5.446 0,2.757 -0.217,4.793 -0.653,6.1 0,1.16 0.143,2.321 0.436,3.485 v 2.177 c -0.293,6.389 0.143,10.165 1.305,11.329 -0.869,1.306 -0.797,4.281 0.22,8.93 z"
             style="fill:#99602b;fill-opacity:1;fill-rule:nonzero;stroke:none"
             id="path50"
             inkscape:connector-curvature="0" /></g><g
           id="g52"
           transform="translate(1165.5879,517.5229)"><path
             d="m 0,0 h 0.653 c 5.082,-0.293 8.387,-1.78 9.912,-4.465 1.526,-2.689 2.102,-5.266 1.743,-7.734 -0.366,-2.47 -2.327,-5.519 -5.881,-9.149 -3.561,-3.631 -6.791,-5.374 -9.694,-5.227 -0.872,0 -2.581,0.436 -5.121,1.306 -2.542,0.872 -3.885,1.379 -4.029,1.525 -0.146,0.579 -0.581,1.015 -1.306,1.307 -3.779,1.451 -5.882,5.153 -6.316,11.11 0,0.578 0.434,1.014 1.306,1.307 -0.582,0 -0.654,0.871 -0.217,2.614 1.013,3.192 3.266,5.3 6.753,6.317 C -7.699,-0.218 -3.632,0.143 0,0 m -0.437,-55.111 -3.702,-36.378 v -2.506 c 0,-0.799 0.072,-1.49 0.217,-2.069 -0.145,-0.582 -0.217,-1.307 -0.217,-2.178 v -15.684 c 0.579,-4.939 0.579,-7.842 0,-8.714 -0.872,-0.293 -1.889,-0.762 -3.05,-1.415 -1.163,-0.653 -3.376,-0.796 -6.643,-0.436 -3.267,0.365 -5.631,0.91 -7.079,1.635 l -2.614,0.652 c -1.454,0 -2.398,0.653 -2.833,1.961 -1.888,1.161 -2.906,2.686 -3.048,4.576 -0.437,0.724 0.071,1.741 1.522,3.047 -0.145,0.727 -0.433,1.778 -0.87,3.16 -0.435,1.379 -0.581,2.647 -0.435,3.812 0.435,0.725 0.216,1.814 -0.654,3.267 0,1.596 0.217,3.411 0.654,5.446 0.579,0.579 0.724,2.685 0.435,6.317 1.013,1.45 1.525,3.486 1.525,6.1 -0.583,2.321 -0.364,4.645 0.654,6.971 1.014,2.32 1.596,4.645 1.741,6.969 0.291,3.629 0.944,7.189 1.961,10.674 0,1.45 0.689,3.775 2.071,6.971 1.377,3.193 2.285,5.081 2.721,5.664 l 3.486,3.485 3.92,1.525 h 0.219 c 1.742,0.579 3.486,0.508 5.228,-0.218 4.21,-1.6 6.753,-2.832 7.625,-3.703 -0.584,-0.583 -0.949,-1.453 -1.091,-2.614 -0.146,-1.164 -0.291,-2.179 -0.434,-3.05 -0.584,-0.728 -1.018,-1.817 -1.309,-3.267"
             style="fill:#99602b;fill-opacity:1;fill-rule:nonzero;stroke:none"
             id="path54"
             inkscape:connector-curvature="0" /></g><g
           id="g56"
           transform="translate(1206.2129,436.7075)"><path
             d="m 0,0 0.436,-8.496 1.525,-4.138 2.178,-4.357 c 0.435,-3.05 1.886,-4.866 4.358,-5.446 1.741,-0.292 3.409,0.653 5.008,2.833 0.873,0.724 1.525,1.231 1.962,1.524 0.872,0.725 1.305,2.358 1.305,4.901 0,2.54 0.219,4.609 0.656,6.208 -0.149,0.726 -0.038,3.302 0.326,7.734 0.359,4.428 0.725,7.841 1.089,10.237 0.36,2.396 0.469,4.031 0.326,4.902 -1.018,1.306 -1.961,3.992 -2.83,8.059 -2.907,2.904 -4.868,4.5 -5.884,4.792 C 7.26,29.914 5.299,30.061 4.574,29.189 3.557,28.172 2.468,23.379 1.308,14.813 0.436,13.359 0.035,11.508 0.109,9.258 0.181,7.004 0.143,5.299 0,4.139 Z m 40.517,5.882 c 0.579,-7.264 0.872,-12.928 0.872,-16.992 l 0.216,-2.832 -0.435,-13.287 c 0,-2.036 -0.074,-3.92 -0.217,-5.665 v -3.483 l -0.872,-5.664 v -2.178 c 0,-5.371 -2.471,-12.996 -7.406,-22.872 -1.741,-3.629 -4.432,-7.332 -8.059,-11.112 -6.099,-6.534 -13.582,-9.944 -22.438,-10.238 -7.407,0 -12.851,1.526 -16.337,4.576 l -2.178,1.09 c -1.742,0.869 -3.703,3.631 -5.881,8.277 0,0.434 -0.364,1.382 -1.089,2.831 0,2.036 0.434,3.631 1.306,4.792 0.579,1.166 2.54,2.178 5.881,3.05 1.451,0.293 4.139,-1.16 8.06,-4.355 2.903,-3.194 6.318,-4.866 10.238,-5.012 4.064,-0.579 7.188,1.309 9.366,5.664 2.181,4.356 3.849,10.168 5.012,17.426 0.579,2.762 0.872,5.883 0.872,9.367 0,3.485 -0.149,5.807 -0.437,6.972 -3.922,-2.035 -7.405,-2.907 -10.456,-2.614 H 4.574 c -1.162,-0.293 -2.906,-0.255 -5.227,0.107 -2.326,0.362 -4.504,1.27 -6.536,2.724 l -4.137,2.833 c 0.143,-0.148 0.071,-0.22 -0.219,-0.22 l -1.089,0.653 -3.051,2.398 c -1.305,0.724 -1.961,2.104 -1.961,4.138 -1.017,0.579 -1.741,1.307 -2.177,2.179 -1.163,0.436 -1.741,1.449 -1.741,3.049 l -1.09,4.357 c 0,0.725 -0.365,2.539 -1.089,5.446 -0.729,1.161 -0.91,2.321 -0.545,3.485 0.361,1.161 0.545,2.103 0.545,2.832 l 0.653,7.406 v 1.525 c -0.436,0.436 -0.436,1.815 0,4.139 0.436,0.871 0.653,1.525 0.653,1.96 0.873,4.646 1.525,7.587 1.961,8.822 0.436,1.232 0.762,2.648 0.979,4.249 0.22,1.595 0.763,3.048 1.635,4.356 l 2.177,5.01 c 0.872,1.596 3.194,3.846 6.973,6.752 1.448,1.45 3.267,2.397 5.444,2.832 L 2.833,44.22 9.149,42.695 c 0.144,0 2.831,-1.089 8.059,-3.268 0,2.757 1.38,5.082 4.14,6.971 1.16,1.161 3.702,1.232 7.625,0.218 h 1.961 c 1.595,0.143 3.337,-0.511 5.227,-1.961 0.87,-1.017 1.814,-3.342 2.831,-6.969 1.015,-13.506 1.525,-24.109 1.525,-31.804"
             style="fill:#99602b;fill-opacity:1;fill-rule:nonzero;stroke:none"
             id="path58"
             inkscape:connector-curvature="0" /></g><g
           id="g60"
           transform="translate(1305.3418,458.4912)"><path
             d="m 0,0 c -1.017,5.806 -3.848,8.495 -8.494,8.059 -2.614,-0.145 -4.868,-1.889 -6.753,-5.228 -2.614,-5.085 -3.741,-11.653 -3.377,-19.713 0.36,-8.06 0.944,-13.87 1.742,-17.427 0.798,-3.56 2.214,-6.645 4.249,-9.258 1.16,-2.035 2.903,-2.977 5.228,-2.83 4.065,0 7.041,3.409 8.93,10.237 l 1.745,5.227 c 0.724,0.725 0.87,1.451 0.433,2.179 1.451,3.629 2.252,7.913 2.398,12.852 -1.455,1.014 -2.327,1.96 -2.615,2.831 -0.872,2.469 -1.307,4.139 -1.307,5.011 -1.018,0.725 -1.6,2.103 -1.742,4.139 C 0.291,-1.89 0.144,-0.583 0,0 m -39.861,-20.477 0.869,11.11 c 1.015,10.02 4.065,18.587 9.15,25.703 4.935,5.954 11.907,9.004 20.911,9.149 h 1.309 c 8.421,0 14.518,-1.817 18.298,-5.445 4.062,-3.196 7.079,-6.681 9.04,-10.457 1.959,-3.777 3.228,-6.534 3.81,-8.276 0.579,-1.743 0.944,-4.286 1.091,-7.625 0.288,-6.245 -0.948,-9.802 -3.705,-10.674 2.032,-13.798 0.798,-24.761 -3.703,-32.891 -1.453,-3.343 -3.56,-6.972 -6.316,-10.892 C 8.857,-63.389 5.229,-64.84 0,-65.133 c -5.228,0 -9.767,0.293 -13.612,0.872 -3.851,0.579 -8.1,2.43 -12.743,5.554 -4.65,3.122 -7.918,8.24 -9.804,15.358 -2.034,6.824 -3.267,14.448 -3.702,22.872"
             style="fill:#99602b;fill-opacity:1;fill-rule:nonzero;stroke:none"
             id="path62"
             inkscape:connector-curvature="0" /></g><g
           id="g64"
           transform="translate(573.5986,353.626)"><path
             d="m 0,0 c 4.062,-2.857 9.776,-1.654 13.534,-3.61 6.015,3.003 7.068,-5.566 12.632,-6.319 3.008,-6.317 11.129,-1.504 13.534,-7.215 3.458,-0.156 6.467,-1.503 9.021,-3.61 -2.705,-7.521 4.814,-13.087 4.516,-20.754 -1.056,-0.601 -0.905,-1.654 -0.905,-2.707 -3.759,0.451 -3.31,5.866 -6.316,8.123 -4.21,3.003 -9.773,4.657 -12.632,9.021 -1.051,0 -2.103,0.3 -2.705,-0.904 -0.454,0.452 -0.903,1.204 -1.805,0.904 1.805,1.203 0.449,3.159 0,4.512 -3.31,6.914 -11.732,-2.407 -13.535,4.513 -1.052,0.903 -1.955,2.401 -3.61,1.8 -1.053,-2.702 -4.36,-5.416 -5.413,-8.118 -1.354,-0.151 -2.708,2.106 -3.608,0 -0.452,0.452 -0.903,1.204 -1.805,0.903 0,1.053 -0.151,2.106 0.902,2.707 -1.053,6.313 -7.821,2.558 -11.729,3.611 l -0.903,-0.903 c -0.151,-2.864 3.759,-1.654 3.608,-4.513 -5.416,-6.619 -13.833,1.649 -19.85,-3.61 -2.856,-3.454 -9.174,-5.416 -13.535,-4.513 -6.616,0 -9.023,-6.613 -13.534,-9.922 -2.404,0.751 -3.608,-1.205 -5.413,-1.806 1.505,-1.354 1.053,-4.062 0,-5.415 -4.061,-0.302 -4.21,-4.358 -8.121,-5.416 l 0.903,-2.702 c -3.307,-1.504 -8.571,-0.301 -9.926,-4.513 -0.602,-3.605 6.619,-5.108 2.707,-9.021 -0.902,-0.601 -2.407,-2.406 -1.805,-4.512 -2.556,-0.904 -2.706,-4.511 -2.706,-7.219 -0.902,0.301 -1.354,-0.451 -1.805,-0.902 3.46,-1.352 0.752,-4.213 0.903,-6.317 2.104,-5.714 -1.204,-13.681 6.316,-17.144 0,-1.051 -0.15,-2.107 0.902,-2.705 8.571,-2.558 1.505,-16.993 12.632,-15.34 l -1.805,-3.612 c 4.062,-0.598 6.318,-5.71 9.926,-7.215 -4.062,-5.113 3.007,-6.319 5.413,-9.021 h 1.803 v -0.903 c 7.07,-0.303 15.041,-3.913 21.658,0 3.157,-0.904 8.118,1.805 11.729,0 6.767,-2.106 4.059,6.614 10.827,4.511 2.106,3.76 6.015,3.458 8.121,7.215 3.307,0.904 9.021,-2.255 9.924,2.708 10.525,-2.404 4.363,15.19 15.339,9.027 1.655,0.902 0.602,3.004 0.903,4.509 -4.062,2.255 0.151,10.376 -6.316,11.728 -8.722,-9.621 -20.753,11.882 -26.166,-4.511 H 0 c -0.301,1.204 0.752,3.007 -0.901,3.609 -7.218,-1.201 -17.448,-2.405 -21.655,4.512 1.803,2.107 8.118,-0.899 6.316,4.514 -1.808,1.201 -2.859,4.357 -5.416,3.606 1.354,3.607 1.354,5.415 0,9.023 -0.9,-2.104 -2.254,0.153 -3.608,0 -0.151,2.407 -4.21,3.159 -2.708,6.315 l 2.708,3.612 c 1.504,-1.355 4.811,-1.355 6.316,0 3.46,0 8.72,-1.355 13.534,-0.904 1.053,-0.904 1.956,-2.406 3.609,-1.804 l 0.904,0.9 c 2.405,-7.517 6.013,3.613 9.022,-2.703 7.82,2.703 15.039,-1.354 23.461,0 1.802,-3.61 6.614,-0.454 9.021,-2.708 10.377,0.451 11.428,-10.98 20.752,-11.731 5.865,-4.06 0,-9.019 -0.902,-13.53 -3.611,-1.359 -0.452,-5.416 -2.708,-7.223 3.31,-1.504 0.602,-7.067 5.416,-6.312 -3.31,-0.755 -1.204,-5.416 -1.806,-8.123 -4.059,-0.602 -6.767,-6.619 -10.826,-4.514 -3.008,-2.255 -5.867,-6.915 -7.221,-9.921 -1.201,-4.061 -7.366,-6.318 -6.313,-11.734 -4.062,-3.156 -7.369,-4.209 -9.927,-9.02 -4.212,-1.803 -7.519,-5.715 -12.631,-5.414 -1.655,-1.204 -0.602,-3.611 -0.903,-5.411 -2.407,-1.506 -7.065,-0.752 -9.023,-0.902 -2.706,-6.618 -12.63,-2.407 -17.146,-3.611 -7.968,7.218 -19.845,0.9 -29.771,5.411 -0.602,1.807 -2.257,3.159 -3.611,4.513 l -4.51,-2.706 c -0.151,5.111 -7.219,4.812 -10.829,7.216 -8.119,-2.404 -9.473,7.372 -15.339,8.124 2.256,4.21 -4.06,2.553 -2.706,6.314 -3.009,2.556 -8.573,4.964 -9.927,9.02 -2.705,6.319 -13.682,5.866 -10.826,15.342 -0.903,0.603 -1.354,2.107 -2.705,1.804 v 1.804 c 0.902,-0.3 1.351,0.452 1.802,0.906 -7.519,2.853 -0.15,10.222 -6.316,14.437 -0.298,0.898 0.454,1.349 0.903,1.8 -1.655,0.603 -0.602,2.41 -0.903,3.61 l 0.903,0.901 c -2.257,1.055 -2.407,4.061 -0.903,5.416 l 1.806,1.803 c -2.856,1.203 -1.352,4.061 -1.806,6.318 6.467,3.761 -3.307,12.181 6.316,12.632 0,1.052 0.301,2.106 -0.9,2.708 1.655,0.601 0.602,2.407 0.9,3.604 -3.156,1.812 0.452,5.867 1.806,7.221 0.451,2.708 2.404,3.31 4.51,4.513 -0.148,2.557 1.203,6.613 1.805,9.922 3.608,-0.15 6.918,3.009 8.121,5.417 0.752,3.61 1.806,4.663 5.414,5.409 l 1.805,3.61 c 1.354,0.15 2.706,-2.105 3.608,0 0,1.054 0.301,2.106 -0.902,2.714 1.055,1.197 2.707,1.197 3.61,2.702 v 1.805 c 2.706,-0.752 4.21,1.204 6.316,1.805 v 2.708 c 3.157,1.805 6.466,5.259 8.121,9.02 0.602,1.655 2.405,0.602 3.608,0.902 1.203,-1.052 1.203,-2.707 2.708,-3.61 5.263,2.407 5.263,10.229 13.532,7.221 1.655,0.602 0.604,2.407 0.902,3.611 11.13,-3.31 20.003,6.462 31.58,1.805 C -3.009,-0.607 -0.901,-1.654 0,0"
             style="fill:#8f286a;fill-opacity:1;fill-rule:evenodd;stroke:none"
             id="path66"
             inkscape:connector-curvature="0" /></g><g
           id="g68"
           transform="translate(1133.917,331.9639)"><path
             d="m 0,0 c 2.558,-0.896 2.106,-5.259 6.312,-3.604 l 0.909,0.902 c 2.852,-1.053 7.666,1.204 10.825,-0.902 4.965,-1.956 4.061,-10.224 10.825,-9.929 0.608,1.661 2.413,2.714 2.714,4.512 l 4.507,-6.311 c 0.602,1.203 1.655,0.902 2.708,0.902 3.309,-5.716 0.451,-14.742 5.41,-18.948 h 0.908 c -0.758,-2.257 -3.309,-3.762 -3.61,-6.318 l -0.903,0.902 c -1.956,-0.451 -5.867,-0.301 -8.124,0.902 -0.896,4.815 -6.619,5.561 -10.825,6.313 -1.052,-0.596 -0.902,-1.649 -0.902,-2.702 1.203,-0.903 0,-3.31 -0.902,-4.513 -3.912,-2.708 -8.425,1.354 -11.729,0 -2.557,1.203 -5.415,5.115 -9.922,3.61 -1.661,-0.601 -0.602,-2.407 -0.909,-3.61 -1.504,-0.301 -3.604,0.752 -4.507,-0.902 -2.557,1.203 4.062,4.964 -1.805,4.512 0,-4.061 -2.708,-6.462 -7.221,-5.416 0,1.054 0.302,2.107 -0.903,2.708 -1.052,0 -2.105,0.301 -2.708,-0.902 2.408,-1.655 -0.902,-3.31 0,-5.409 -7.666,-4.363 -13.984,-6.921 -19.85,-14.441 1.504,-6.168 -2.702,-12.331 -2.702,-18.945 -0.909,0.299 -1.354,-0.453 -1.805,-0.907 1.203,-1.8 0,-5.109 -0.903,-7.216 l -0.903,-12.63 c 4.062,-1.356 -0.902,-3.613 1.806,-5.416 -1.806,-1.807 0.301,-4.359 0.896,-6.317 -1.649,-0.6 -0.595,-2.407 -0.896,-3.607 0.602,-1.054 1.654,-0.904 2.707,-0.904 -2.105,-5.413 4.809,-4.81 3.605,-9.927 8.274,-5.864 11.132,-13.534 22.559,-11.726 4.814,-6.319 14.887,-2.558 20.754,-3.611 6.612,0 10.976,7.67 18.046,3.611 0.902,3.157 4.061,4.21 7.221,3.605 -1.812,-8.868 13.225,-4.21 11.727,-14.434 h 1.8 c -0.452,-2.555 -0.302,-3.157 0.908,-5.411 -3.009,-2.407 2.1,-4.814 -0.908,-7.223 -3.31,-3.156 -12.926,3.009 -11.729,-5.413 -7.365,0.453 -12.479,-10.376 -19.85,-4.511 -0.452,-0.449 -0.903,-1.201 -1.806,-0.9 -2.099,1.048 -4.807,-1.958 -8.117,-0.904 -1.054,-6.766 -5.416,1.653 -8.117,-1.804 -3.31,1.353 -8.425,1.353 -11.735,0 v -0.903 c -1.804,1.805 -3.153,4.814 -7.214,3.611 -0.452,-0.454 -1.204,-0.904 -0.909,-1.806 -2.702,0 -6.312,0.15 -7.214,2.705 l 0.902,0.903 c -3.009,2.41 -11.282,-1.802 -9.923,5.415 l -3.61,3.607 c -0.602,-1.051 -1.655,-0.901 -2.708,-0.901 0.295,3.46 -3.761,0.452 -4.513,3.611 -0.445,-0.453 -0.902,-1.205 -1.806,-0.903 -0.451,0.45 -1.203,0.903 -0.896,1.803 1.047,0 2.106,0.304 2.702,-0.9 1.203,0.602 0.902,1.652 0.902,2.708 l -1.804,1.805 c -0.904,-1.655 -3.009,-0.604 -4.514,-0.903 1.505,0.299 3.61,-0.752 4.514,0.903 -0.753,4.807 -5.411,5.561 -7.215,9.921 -3.611,7.219 -6.77,16.393 -13.533,20.755 0.15,5.264 -2.865,6.918 -3.611,11.728 -4.513,1.353 -2.257,7.218 -5.416,9.926 4.357,10.225 -12.178,12.631 -2.708,21.653 v 3.613 c 1.204,-0.305 3.009,0.752 3.611,-0.905 1.655,1.808 0.602,4.813 0.903,7.219 1.353,-0.299 1.799,1.203 2.708,1.804 l -4.514,1.806 c 1.355,2.705 2.558,3.761 5.416,4.511 0.903,-1.806 2.551,0.301 3.611,0.902 1.798,2.407 3.153,5.864 4.506,9.025 -0.3,2.105 0.752,4.813 -0.902,6.318 h -1.806 c 4.664,1.348 1.355,8.267 8.124,6.311 1.504,2.107 4.958,3.46 4.513,6.313 2.552,1.36 1.949,5.867 6.313,5.416 0.902,1.203 2.707,2.105 2.707,3.61 l -0.903,0.903 c 4.212,2.106 9.779,2.858 12.631,6.318 l 0.903,0.902 -0.903,0.897 c 0.602,0.909 2.106,1.354 1.805,2.714 l -0.902,0.896 h 3.61 c 0.301,-1.197 -0.752,-3.002 0.902,-3.61 1.355,3.61 5.416,0.458 7.221,2.714 4.507,0.896 10.374,1.354 14.435,4.507 C -9.472,-4.657 -12.48,-1.047 -9.021,0 -5.41,1.36 -3.003,-2.701 0,0"
             style="fill:#2958a7;fill-opacity:1;fill-rule:evenodd;stroke:none"
             id="path70"
             inkscape:connector-curvature="0" /></g><g
           id="g72"
           transform="translate(747.7402,286.8516)"><path
             d="m 0,0 c -0.603,-0.902 -2.106,-1.348 -1.806,-2.702 -4.962,-0.151 -3.758,-5.263 -7.218,-7.221 -5.862,-2.858 -11.278,-10.827 -19.85,-9.024 l -1.803,-1.803 c -5.717,-1.654 -13.086,0.603 -18.048,-2.707 -0.601,1.203 -1.652,0.899 -2.706,0.899 -1.052,-0.596 -0.902,-1.652 -0.902,-2.702 -3.31,0.599 -7.67,-1.505 -9.926,1.803 -2.407,2.105 1.056,6.469 -0.903,9.023 -0.602,8.573 1.505,21.504 -1.802,28.875 h -0.903 c 3.458,1.951 0.451,6.614 2.705,9.021 -1.05,0.601 -0.9,1.654 -0.9,2.708 l 0.9,0.902 c -2.705,5.416 2.558,9.622 0,16.241 1.655,-3.008 6.016,-1.956 8.121,-0.903 3.009,2.558 4.962,-5.415 7.219,0 7.218,-4.362 13.234,4.815 19.85,-0.902 0.903,2.106 2.257,-0.151 3.611,0 -0.301,-0.903 0.451,-1.354 0.9,-1.806 3.761,-0.451 3.009,4.213 6.318,4.514 3.457,-0.602 4.207,-6.018 9.022,-5.416 V 36.093 C -6.316,33.084 1.354,29.63 -0.903,25.267 4.059,22.56 -1.054,14.742 1.805,9.929 2.105,6.168 -2.106,3.315 0,0 m 28.873,9.929 -1.805,1.805 c 2.558,6.162 -6.316,7.516 -4.51,14.436 -0.301,1.053 0.752,2.105 1.802,1.805 -1.05,0.601 -0.9,1.655 -0.9,2.708 -5.112,1.956 -4.663,7.064 -9.023,10.825 l 0.9,0.902 c 0.603,1.655 -0.9,2.558 -1.803,3.611 -6.617,1.354 -8.572,9.02 -16.24,9.922 -8.121,0.752 -14.437,5.567 -22.558,6.319 -2.103,-2.107 -4.811,-0.151 -6.318,1.805 -2.856,0 -6.013,0.452 -8.119,-1.805 -14.136,0.601 -28.272,-1.505 -42.408,1.804 2.708,-4.212 -3.608,-8.273 -2.705,-11.733 -0.301,-2.106 0.75,-4.813 -0.903,-6.312 4.661,-5.566 -5.413,-10.525 0.903,-14.442 -4.664,-3.304 1.652,-8.869 -1.806,-11.727 1.354,-8.419 -2.705,-16.693 0,-23.456 l -1.802,-14.44 0.9,-0.903 c 0.301,-0.9 -0.452,-1.354 -0.9,-1.803 l 0.9,-0.902 c -3.608,-2.257 -0.452,-7.216 -2.708,-9.924 2.708,-2.708 1.504,-4.661 1.808,-7.221 -2.259,-3.307 0.9,-9.021 -2.708,-11.727 l 2.708,-3.608 c -2.859,-2.257 0.599,-3.761 -1.808,-6.321 -0.451,-4.057 -3.305,-9.319 0,-12.629 -2.856,-10.98 2.106,-21.806 -3.608,-31.579 3.911,-1.354 -0.449,-8.575 5.416,-9.024 -2.859,-2.256 1.502,-1.202 0.9,-3.61 7.218,-4.963 6.017,4.513 9.923,7.216 0.903,0.306 1.357,-0.446 1.808,-0.9 2.405,2.709 7.216,2.404 9.924,1.807 0.451,0.449 0.903,1.201 1.805,0.902 -0.301,1.955 -3.61,3.91 0,5.414 5.564,0.599 4.361,7.216 4.511,11.729 -0.602,4.812 -2.557,10.223 -1.805,14.437 -2.257,2.407 0.902,7.216 -2.706,9.021 l 1.803,1.803 c 2.106,1.958 0,4.513 -0.902,6.318 4.964,3.909 -2.555,7.069 0.902,11.73 -0.902,-0.301 -1.354,0.451 -1.803,0.9 3.458,1.354 0.449,3.61 0,5.416 1.504,0.902 1.504,2.557 2.706,3.607 2.256,-0.451 5.115,1.054 6.315,-1.799 l -1.803,-1.808 c 1.355,-0.449 3.458,-1.806 4.511,0 1.502,0 5.413,-0.301 7.217,1.808 l -1.804,1.799 4.514,1.808 c 3.306,-3.311 11.125,-7.221 10.824,-13.536 3.911,-6.766 10.528,-8.27 11.734,-15.341 -0.153,-1.654 0.298,-4.66 2.705,-3.605 0.602,-6.469 5.414,-11.882 9.022,-16.243 0,-8.123 10.828,-11.578 8.121,-20.754 2.256,-4.662 5.714,-10.526 12.634,-8.119 3.306,4.664 9.169,5.265 11.726,9.924 3.009,2.705 -2.103,5.415 0.903,8.121 -3.608,4.661 -3.758,8.272 -8.121,12.631 2.557,3.007 -2.555,2.859 -1.805,6.319 -3.308,3.756 -3.909,10.974 -9.922,13.532 0.752,4.811 -4.663,4.663 -2.708,9.929 -3.159,6.465 -7.221,8.417 -11.731,13.535 0.15,3.154 -2.104,6.31 0,9.018 l 1.805,-1.801 0.903,0.901 0.902,-0.901 c 0.9,-0.302 1.354,0.45 1.806,0.901 l -0.906,0.9 c 0,1.053 -0.147,2.107 0.906,2.708 l 1.802,-2.708 c 5.567,0.905 3.31,5.114 7.221,8.118 1.051,0 2.104,0.304 2.706,-0.899 0.301,1.203 -0.753,3.008 0.9,3.61 3.613,-1.354 6.316,-1.505 9.024,0 0.303,1.803 3.309,3.611 0.904,5.413 1.35,2.106 3.609,2.408 5.411,3.608 1.806,3.611 -0.9,5.868 0,9.924 -0.298,1.058 0.752,2.112 1.806,1.81 V 2.714 H 23.46 c -0.451,0.445 -1.203,0.896 -0.902,1.799 2.254,1.204 2.858,1.354 5.413,0.903 -1.053,1.504 -1.053,3.46 0.902,4.513"
             style="fill:#2958a7;fill-opacity:1;fill-rule:evenodd;stroke:none"
             id="path74"
             inkscape:connector-curvature="0" /></g><g
           id="g76"
           transform="translate(1268.3564,325.6514)"><path
             d="m 0,0 c 5.115,3.159 3.762,-6.011 8.124,-1.805 2.106,0 4.356,0.457 5.415,-1.805 4.207,-6.463 16.235,-2.106 22.554,-7.215 3.911,-2.407 9.778,-2.106 11.733,-7.221 1.655,-7.516 -16.097,-3.309 -4.513,-10.825 3.16,-3.159 3.009,-6.318 5.416,-9.02 -3.611,-1.505 -9.026,-8.424 -15.344,-4.513 -1.197,1.053 -1.197,2.702 -2.702,3.604 -2.708,-1.799 -4.663,0.307 -7.221,0.909 1.053,3.159 -2.708,2.702 -4.513,2.702 h -2.702 c 0.451,5.115 -6.018,4.814 -9.026,7.22 -3.159,0.446 -7.366,-1.353 -9.026,2.702 -5.711,-1.95 -13.232,-7.966 -18.942,-1.799 l -0.903,0.903 c -3.16,-2.708 -7.672,-1.956 -10.826,-4.514 -4.819,-4.657 -3.315,-11.126 -9.928,-13.532 -0.752,-6.467 -6.318,-8.874 -6.318,-15.341 -7.817,-7.067 -3.46,-19.248 -7.221,-27.969 1.354,-5.115 -2.702,-11.43 0,-17.147 3.918,-6.313 9.778,-11.727 16.247,-17.142 -0.903,-6.615 10.374,-4.962 9.923,-12.631 8.423,-4.062 17.895,-5.866 27.968,-6.317 5.265,1.502 10.38,2.859 14.442,7.219 6.312,0.601 9.471,6.619 14.435,10.826 h 1.8 c -0.295,-0.9 0.451,-1.353 0.902,-1.803 1.504,0.299 3.611,-0.752 4.513,0.903 v 0.9 h 1.806 c 1.203,-5.265 5.716,-11.428 2.708,-16.237 -2.257,-0.604 -3.612,-3.011 -5.416,-4.513 0.601,-4.212 -2.702,-5.112 -5.41,-7.219 -4.062,0.602 -4.808,-4.51 -8.123,-4.51 -2.859,1.05 -6.914,-0.454 -10.826,0 -4.964,-1.356 -0.902,-8.726 -7.22,-7.221 -2.408,0.301 -4.815,3.309 -7.215,0.904 l -2.708,-1.807 c -13.684,1.807 -27.674,3.157 -40.606,7.219 -1.804,3.758 -6.769,7.068 -10.825,9.026 -3.61,6.617 -11.878,9.623 -14.441,17.142 -9.17,9.621 -11.577,23.458 -15.332,36.09 1.956,2.706 -0.157,7.219 1.799,9.927 -3.455,1.351 -0.752,4.207 -0.903,6.313 l 1.812,1.808 c -4.815,4.36 3.905,7.667 0.896,13.532 l 2.708,1.805 c -3.309,2.705 2.557,4.965 0,7.219 0.151,5.864 5.866,2.406 7.221,7.218 -1.806,6.313 4.056,9.322 6.311,13.534 0.158,3.008 3.009,4.813 4.514,7.214 4.212,-1.046 5.716,4.513 9.02,5.415 -0.295,1.205 0.752,3.009 -0.897,3.611 -0.451,-0.451 -0.908,-1.203 -1.805,-0.903 0.897,9.177 13.382,7.522 17.143,15.339 3.762,-1.348 8.118,4.212 12.631,0.909 l 2.708,-2.714 c 1.654,0.607 0.601,2.407 0.902,3.61 5.266,2.257 8.726,-4.657 12.631,0 2.106,-0.602 4.964,1.053 7.221,0.902 C -2.852,2.558 -2.25,-3.304 0,0"
             style="fill:#0f696c;fill-opacity:1;fill-rule:evenodd;stroke:none"
             id="path78"
             inkscape:connector-curvature="0" /></g><g
           id="g80"
           transform="translate(873.1572,246.252)"><path
             d="m 0,0 c -3.31,1.201 -4.812,-1.806 -7.219,-2.708 -6.616,0.604 -14.437,-1.504 -19.847,1.806 -4.213,-4.664 -9.328,5.565 -10.83,-1.806 2.254,10.832 9.624,18.646 15.337,28.874 4.513,6.315 5.416,12.635 9.927,18.044 -1.053,-4.056 5.263,-7.516 4.511,-12.633 C -0.15,29.774 -4.661,21.204 0,17.143 2.558,13.233 1.203,7.67 5.416,4.513 7.068,0.451 1.956,1.201 0,0 m 49.626,-51.433 v 0 c 1.202,7.673 -5.714,12.184 -4.513,19.853 4.212,6.617 -7.817,9.773 -3.607,16.238 C 38.948,-10.979 35.641,-5.566 34.289,0 29.927,3.159 33.231,10.977 27.071,11.731 27.82,18.646 22.257,23.759 20.753,28.874 19.398,37.446 10.378,42.856 10.829,52.334 6.018,60.752 3.009,67.371 -1.803,75.789 -3.31,79.55 0.752,78.503 1.805,81.205 0.15,83.16 -0.15,85.712 0,88.426 c -4.962,0.752 -6.467,5.71 -10.826,6.312 -3.912,-4.808 -10.981,-1.053 -16.24,-0.903 -1.206,-13.081 -7.372,-21.801 -14.438,-32.481 -2.406,-3.31 -6.616,-8.418 -9.02,-11.728 -4.666,-1.355 -2.26,-7.967 -5.418,-9.929 1.052,-3.153 -4.662,-3.604 -2.706,-7.216 -2.706,-2.556 -1.502,-9.173 -7.219,-8.118 2.106,-6.468 -4.66,-6.918 -6.316,-11.731 5.714,-7.216 -6.163,-7.672 -7.218,-13.534 2.256,-6.467 -9.022,-16.391 3.608,-17.143 0.451,-5.264 -4.962,-8.271 -4.511,-13.535 -4.21,-5.263 -4.21,-13.235 -9.924,-17.142 1.954,-2.409 -0.302,-6.468 3.609,-8.124 3.761,-1.802 7.971,-4.058 9.924,-8.121 0.453,0.454 0.902,1.206 1.807,0.905 0,1.053 0.298,2.102 -0.905,2.706 0.905,1.204 2.257,1.356 3.61,1.807 0.752,-2.411 4.812,-1.203 3.611,-4.513 h 6.313 l 1.806,5.414 c 2.857,3.608 1.657,9.776 4.511,12.634 1.203,3.758 1.203,8.117 2.707,11.727 1.053,7.516 11.43,4.209 17.144,6.318 4.812,-0.303 9.774,1.653 13.532,0.9 8.874,5.262 21.657,1.05 31.582,3.61 5.263,-2.105 6.015,-7.822 9.024,-11.729 v -9.926 c 0,-1.504 1.806,-2.405 2.706,-3.608 -1.204,-5.718 5.714,-3.309 4.511,-9.023 5.114,-2.407 0.752,-9.626 7.215,-10.827 2.71,-11.583 10.08,1.349 16.245,-2.708 7.77,0.16 10.28,7.214 0.902,19.847"
             style="fill:#0f696c;fill-opacity:1;fill-rule:evenodd;stroke:none"
             id="path82"
             inkscape:connector-curvature="0" /></g><g
           id="g84"
           transform="translate(1023.8418,220.0859)"><path
             d="m 0,0 v -1.804 h -2.708 c 0,4.511 -6.018,2.255 -8.123,5.411 -12.33,-3.309 -28.119,-1.201 -40.6,-1.804 l 2.708,3.61 -2.708,1.805 c 0.301,3.458 10.224,3.159 2.708,7.217 5.867,-1.354 3.761,6.32 8.118,7.22 -2.859,5.113 3.008,6.617 1.805,11.727 3.611,5.265 9.627,12.331 7.221,19.852 3.153,2.104 7.365,5.261 8.117,9.025 l -0.902,0.902 c 2.857,0 1.654,-4.814 4.512,-6.318 0.301,-3.157 -0.752,-9.024 0.903,-12.635 5.109,-2.855 0.752,-12.927 7.215,-14.432 1.36,-3.159 -6.764,-4.962 0,-5.416 h 2.089 c 0.469,0.077 0.995,0 1.521,0 h -1.521 c -0.469,-0.075 -0.882,-0.3 -1.186,-0.902 0.307,-1.504 -0.753,-3.61 0.902,-4.511 h 3.611 c -1.053,-0.603 -0.903,-1.652 -0.903,-2.706 l 2.707,-1.806 c -0.902,0.302 -1.353,-0.45 -1.804,-0.899 -0.151,-3.612 4.212,-0.455 5.409,-2.712 L -3.61,8.12 C -1.054,6.767 4.808,2.105 0,0 m 32.481,-48.724 c -1.058,2.557 -2.256,7.371 1.799,9.021 0.308,1.807 -0.144,3.46 -1.799,4.514 l 4.507,3.61 -1.804,1.803 c 3.007,1.502 -2.107,3.008 0.908,4.51 -2.413,2.856 -2.708,6.469 -3.611,9.926 -7.822,2.558 -2.256,12.181 -9.026,13.537 2.407,2.101 -0.601,4.209 -0.896,6.316 -5.265,-0.906 -1.059,6.163 -3.611,7.216 -2.708,6.917 -1.353,17.895 -8.123,20.753 1.203,1.504 3.159,0.752 4.513,1.808 0.752,2.552 -2.413,3.607 -3.61,5.41 l 0.902,0.901 c 0.601,1.657 -0.902,2.557 -1.805,3.608 4.814,9.176 -8.425,10.681 -6.318,19.855 0.902,1.504 2.557,1.504 3.61,2.702 l -4.513,4.513 c 5.867,4.212 -2.106,7.522 1.805,12.636 -4.964,1.8 -0.601,11.277 -9.019,9.021 3.911,1.654 0.902,4.362 1.798,8.123 -0.601,4.206 -6.462,3.905 -9.019,7.214 0.902,5.416 -7.065,2.558 -8.118,7.221 -3.31,2.251 -4.964,0.295 -9.026,0.903 0.452,-3.459 -1.805,-5.566 -4.513,-7.221 0.458,-6.613 -10.217,-1.354 -6.312,-9.922 -6.162,-1.355 -2.858,-8.425 -6.312,-11.734 l 0.902,-0.903 c -3.159,-6.763 -7.822,-10.524 -7.221,-18.942 -2.257,-2.558 -3.159,-8.425 -2.708,-11.735 -0.15,-3.909 -7.672,-3.608 -3.61,-8.121 l -1.805,-1.802 c 0.151,-1.355 -2.106,-2.708 0,-3.612 -3.46,-2.554 -4.213,-7.817 -6.312,-11.726 -2.257,-2.106 0.896,-7.368 -2.714,-8.121 l 0.908,-2.71 -3.61,-1.801 c 0,-1.053 -0.151,-2.107 0.903,-2.71 -4.965,-3.608 2.256,-9.025 -2.708,-12.63 -3.761,0.299 -1.962,-6.015 -6.318,-6.318 3.46,-7.216 -4.363,-9.472 -4.507,-16.237 -17.954,-5.858 -10.362,-25.753 0,-35.193 0.451,6.92 4.507,10.677 8.117,15.338 0.451,-0.449 1.203,-0.898 0.902,-1.8 1.053,0 2.101,0.298 2.708,-0.903 3.009,0.903 3.605,1.652 4.513,4.51 -1.053,0.6 -0.908,1.653 -0.908,2.706 0.457,0.452 0.908,1.204 1.811,0.9 2.106,4.514 -1.354,12.937 6.312,13.534 l 1.806,-2.705 c 2.407,-1.351 6.619,-1.504 8.123,1.805 l 1.805,-1.805 c 0.452,0.451 0.903,1.201 1.799,0.905 v 1.8 c 7.221,1.958 16.241,-0.147 23.462,1.808 6.018,2.257 10.831,-0.9 16.241,2.706 4.658,-6.168 12.63,-2.706 17.143,-8.119 0.151,-1.354 -2.106,-2.705 0,-3.611 -0.602,-0.902 -2.106,-1.351 -1.805,-2.707 1.203,-0.299 3.009,0.752 3.611,-0.9 l -3.611,-3.61 c 5.114,-1.954 -2.257,-3.611 0.903,-5.412 3.159,-3.008 4.814,-3.613 6.318,-8.123 h 2.708 c 2.407,-1.653 -0.902,-3.308 0,-5.414 1.805,-4.51 3.159,-5.26 7.215,-8.121 4.813,-0.15 6.01,4.21 9.019,6.319 -0.601,2.404 1.511,6.764 -1.799,7.216"
             style="fill:#a22f53;fill-opacity:1;fill-rule:nonzero;stroke:none"
             id="path86"
             inkscape:connector-curvature="0" /></g><g
           id="g88"
           transform="translate(314.0015,196.7754)"><path
             d="m 0,0 141.235,358.105 -277.169,108.561 -141.234,-358.106 44.765,-168.83 89.256,-34.959 z"
             style="fill:#f2ce8d;fill-opacity:1;fill-rule:nonzero;stroke:none"
             id="path90"
             inkscape:connector-curvature="0" /></g><g
           id="g92"
           transform="translate(239.6802,470.4131)"><path
             d="m 0,0 c -3.349,0.293 -6.696,0.582 -10.043,0.875 2.135,21.383 4.828,25.369 3.932,45.203 C 0.948,49.365 3.904,57.548 15,56.042 21.725,37.871 6.919,17.51 3.346,-0.291 L 1.748,0.69 Z"
             style="fill:#47a9df;fill-opacity:1;fill-rule:evenodd;stroke:none"
             id="path94"
             inkscape:connector-curvature="0" /></g><g
           id="g96"
           transform="translate(241.9727,467.6807)"><path
             d="m 0,0 1.054,2.442 c 4.487,-9.748 -4.1,-23.149 -4.149,-28.317 -3.178,3.954 -4.852,-0.417 -10.045,0.875 0.889,9.67 -4.718,18.183 0.659,26.932 2.701,-3.387 4.371,0.989 10.042,-0.874 z"
             style="fill:#47a9df;fill-opacity:1;fill-rule:evenodd;stroke:none"
             id="path98"
             inkscape:connector-curvature="0" /></g><g
           id="g100"
           transform="translate(273.7446,474.1934)"><path
             d="m 0,0 c -3.881,9.02 2.452,19.969 7.209,24.677 -2.324,10.843 6.228,17.915 12.226,24.235 5.5,2.002 9.317,-8.554 10.049,-0.873 C 35.663,42.805 29.216,24.85 20.745,25.187 18.771,9.679 15.639,-4.446 -0.29,-3.349 l 0.982,1.608 z"
             style="fill:#47a9df;fill-opacity:1;fill-rule:evenodd;stroke:none"
             id="path102"
             inkscape:connector-curvature="0" /></g><g
           id="g104"
           transform="translate(273.9282,466.5918)"><path
             d="M 0,0 -0.619,2.581 C 3.309,2.778 5.783,1.751 7.605,0.18 9.83,-14.167 3.47,-22.801 -8.121,-25.439 c -6.391,4.482 -3.374,24.645 5.677,26.492 z"
             style="fill:#47a9df;fill-opacity:1;fill-rule:evenodd;stroke:none"
             id="path106"
             inkscape:connector-curvature="0" /></g><g
           id="g108"
           transform="translate(343.8394,484.9648)"><path
             d="m 0,0 c 5.491,-7.868 -4.484,-13.063 -6.625,-17.975 -5.514,1.574 -6.428,7.011 -10.993,9.39 C -17.499,3.075 -3.065,2.051 0,0"
             style="fill:#47a9df;fill-opacity:1;fill-rule:evenodd;stroke:none"
             id="path110"
             inkscape:connector-curvature="0" /></g><g
           id="g112"
           transform="translate(310.356,449.0884)"><path
             d="M 0,0 C -3.703,9.091 7.359,25.23 16.815,18.776 20.994,8.127 8.048,-5.767 1.382,-3.501 l 1.055,2.443 z"
             style="fill:#47a9df;fill-opacity:1;fill-rule:evenodd;stroke:none"
             id="path114"
             inkscape:connector-curvature="0" /></g><g
           id="g116"
           transform="translate(308.8633,441.6226)"><path
             d="m 0,0 2.585,0.619 c 4.144,-10.896 -4.291,-18.355 -13.466,-19.071 -0.1,1.983 -2.928,1.681 -4.88,2.112 -0.428,7.902 3.576,10.526 4.805,16.452 2.341,2.135 7.997,0.337 10.339,2.471 z"
             style="fill:#47a9df;fill-opacity:1;fill-rule:evenodd;stroke:none"
             id="path118"
             inkscape:connector-curvature="0" /></g><g
           id="g120"
           transform="translate(376.3706,412.9731)"><path
             d="m 0,0 c -0.857,-11.289 -6.669,-16.689 -13.611,-20.742 -22.424,5.638 -29.057,-13.079 -45.781,-2.765 2.878,4.579 8.767,5.572 11.062,10.851 7.915,0.435 15.046,0.937 24.165,6.329 C -14.792,-0.789 -10.457,9.705 0,0"
             style="fill:#47a9df;fill-opacity:1;fill-rule:evenodd;stroke:none"
             id="path122"
             inkscape:connector-curvature="0" /></g><g
           id="g124"
           transform="translate(169.2891,378.7021)"><path
             d="m 0,0 c -11.39,8.504 -35.921,3.277 -42.215,18.856 0.241,2.789 0.484,5.576 0.728,8.368 16.307,8.683 24.313,-0.586 32.901,-9.609 C -3.881,12.673 -0.311,7.081 3.64,3.058 L 0.292,3.349 Z"
             style="fill:#47a9df;fill-opacity:1;fill-rule:evenodd;stroke:none"
             id="path126"
             inkscape:connector-curvature="0" /></g><g
           id="g128"
           transform="translate(173.5474,379.1777)"><path
             d="m 0,0 -0.62,2.582 c 8.07,3.763 9.893,-3.711 18.417,-1.599 4.804,1.188 2.959,9.98 12.883,12.37 5.312,-0.284 11.166,-8.087 12.956,-6.188 -10.971,8.075 -0.14,16.997 10.119,19.361 -10.939,4.014 -5.945,22.216 -2.4,30.576 40.01,-0.475 65.436,-9.868 73.95,-41.861 6.404,-3.932 15.233,-5.829 15.577,-14.849 -3.651,-6.788 -8.455,-17.698 -14.848,-15.576 -0.626,-13.884 -22.087,-46.384 -37.855,-47.31 -6.324,-0.37 -15.38,5.612 -22.855,8.736 -7.716,3.221 -13.832,1.937 -25.112,2.186 -11.558,9.335 -28.1,19.559 -25.545,35.953 l 2.581,0.627 -2.436,1.051 c 0.263,3.798 -8.791,8.499 -4.874,2.11 L 7.35,-12.449 7.969,-15.036 C 4.7,-17.171 -0.21,-7.485 -1.056,-2.442 Z m 61.614,0.542 c 0.618,5.173 0.053,9.352 -2.327,12.004 -1.278,-5.209 2.503,-6.165 0.654,-11.86 l -1.056,-2.443 2.582,0.62 c -0.441,-3.134 0.986,-12.376 2.623,-8.657 1.036,3.973 -2.741,3.905 -0.944,8.511 l 1.053,2.444 z"
             style="fill:#47a9df;fill-opacity:1;fill-rule:evenodd;stroke:none"
             id="path130"
             inkscape:connector-curvature="0" /></g><g
           id="g132"
           transform="translate(241.9727,467.6807)"><path
             d="M 0,0 C -0.362,1.158 -0.459,2.293 -0.545,3.422"
             style="fill:#47a9df;fill-opacity:1;fill-rule:evenodd;stroke:none"
             id="path134"
             inkscape:connector-curvature="0" /></g><g
           id="g136"
           transform="translate(274.437,472.4526)"><path
             d="m 0,0 c -0.286,-0.069 -0.57,-0.126 -0.852,-0.191 -1.61,-1.493 -0.786,-3.964 0.344,-5.671"
             style="fill:#47a9df;fill-opacity:1;fill-rule:evenodd;stroke:none"
             id="path138"
             inkscape:connector-curvature="0" /></g><g
           id="g140"
           transform="translate(308.8633,441.6226)"><path
             d="M 0,0 C 0.724,2.762 2.289,4.819 3.93,6.408"
             style="fill:#47a9df;fill-opacity:1;fill-rule:evenodd;stroke:none"
             id="path142"
             inkscape:connector-curvature="0" /></g><g
           id="g144"
           transform="translate(190.7954,364.1855)"><path
             d="M 0,0 C -3.459,0.112 -6.97,0.531 -9.898,2.542"
             style="fill:#47a9df;fill-opacity:1;fill-rule:evenodd;stroke:none"
             id="path146"
             inkscape:connector-curvature="0" /></g><g
           id="g148"
           transform="translate(173.5479,379.1777)"><path
             d="M 0,0 C -1.831,0.906 -2.735,1.91 -3.967,2.874"
             style="fill:#47a9df;fill-opacity:1;fill-rule:evenodd;stroke:none"
             id="path150"
             inkscape:connector-curvature="0" /></g><g
           id="g152"
           transform="translate(237.7451,380.3389)"><path
             d="M 0,0 C -1.766,-0.93 -3.524,-1.754 -5.312,-2.918"
             style="fill:#47a9df;fill-opacity:1;fill-rule:evenodd;stroke:none"
             id="path154"
             inkscape:connector-curvature="0" /></g><g
           id="g156"
           transform="translate(295.625,377.2676)"><path
             d="m 0,0 c 0.454,-0.893 0.98,-1.745 1.485,-2.612 0.617,0.737 1.238,1.468 2.101,2.496 C 2.208,0.372 1.311,0.685 0.226,1.067 0.1,0.495 -0.092,0.176 0,0"
             style="fill:#c41e67;fill-opacity:1;fill-rule:nonzero;stroke:none"
             id="path158"
             inkscape:connector-curvature="0" /></g><g
           id="g160"
           transform="translate(339.7925,430.1592)"><path
             d="m 0,0 c -1.745,-0.164 -3.45,-0.687 -4.944,0.711 -0.072,0.073 -0.254,0.058 -0.381,0.05 -2.41,-0.243 -3.859,-2.33 -5.977,-3.128 -0.052,-0.021 -0.133,-0.105 -0.125,-0.142 0.32,-1.687 -1.193,-2.106 -2.048,-2.978 -0.275,-0.283 -0.747,-0.63 -0.721,-0.908 0.157,-1.624 -1.043,-1.824 -2.118,-2.377 -2.603,-1.342 -2.814,-3.552 -0.319,-5.143 0.172,0.873 0.318,1.627 0.529,2.702 2.212,-1.075 2.896,1.322 4.458,2 0.272,0.117 0.508,0.76 0.463,1.125 -0.28,2.249 0.229,2.825 2.895,2.938 -0.26,-0.534 -0.487,-1.003 -0.679,-1.403 1.367,-0.197 2.602,-0.376 4.073,-0.589 -0.125,-0.91 -0.241,-1.615 -0.318,-2.322 -0.104,-0.97 1.039,-2.572 1.982,-2.601 0.377,-0.008 0.789,0.473 1.142,0.778 0.093,0.081 0.031,0.35 0.042,0.553 -0.519,0.294 -0.995,0.563 -1.652,0.928 1.475,1.013 2.808,1.927 4.187,2.874 0.4,-0.19 0.809,-0.402 1.229,-0.589 1.71,-0.755 2.508,-0.36 2.712,1.456 0.171,1.509 0.556,2.918 -1.206,4.151 C 2.175,-1.185 1.407,0.136 0,0 m 0.84,-6.002 c -1.052,0.815 -1.99,0.955 -2.732,-0.303 -0.961,0.703 -1.779,1.297 -2.599,1.904 l 0.402,0.625 c 0.649,-0.385 1.302,-0.767 2.142,-1.267 0.995,0.531 2.173,0.823 2.787,-0.959"
             style="fill:#c41e67;fill-opacity:1;fill-rule:nonzero;stroke:none"
             id="path162"
             inkscape:connector-curvature="0" /></g><g
           id="g164"
           transform="translate(230.6123,515.2627)"><path
             d="m 0,0 c -1.422,0.545 -3.835,-0.302 -4.448,-1.684 -0.167,-0.372 -0.138,-0.896 -0.03,-1.31 0.158,-0.635 0.459,-1.238 0.736,-1.952 -0.602,0.345 -1.089,0.625 -1.933,1.107 0.011,-0.651 0.003,-1.27 -0.059,-1.873 -0.034,-0.366 -0.088,-0.723 -0.173,-1.076 -0.031,-0.136 -0.073,-0.274 -0.116,-0.41 -0.268,-0.863 -0.727,-1.676 -1.526,-2.426 0.371,0.027 0.706,0.084 1.029,0.161 0.639,0.15 1.182,0.386 1.62,0.697 0.601,0.426 1.007,0.981 1.176,1.594 0.108,0.374 0.39,0.703 0.619,1.032 0.215,0.304 0.455,0.482 0.698,0.608 0.021,0.009 0.04,0.022 0.058,0.03 1.056,0.492 2.332,-0.233 3.378,0.296 C 1.118,-5.354 1.21,-5.498 1.297,-5.644 0.65,-6.223 0.003,-6.801 -0.647,-7.377 -1.051,-7.734 -1.453,-8.094 -1.855,-8.45 c 0.053,-0.102 0.111,-0.201 0.168,-0.305 0.825,0.105 1.655,0.207 2.438,0.309 -0.418,-1.064 -0.723,-1.835 -1.06,-2.688 -0.72,0.646 -1.431,1.276 -2.278,2.03 -0.021,0.017 -0.038,0.029 -0.061,0.053 -0.373,-0.149 -0.806,-0.266 -1.232,-0.416 -0.419,-0.147 -0.83,-0.322 -1.171,-0.589 -0.564,-0.438 -0.892,-1.27 -1.146,-1.99 -0.217,-0.608 -0.241,-1.303 -0.244,-1.956 0,-0.952 -0.15,-2.006 0.202,-2.829 0.565,-1.332 2.024,-2.474 2.12,-3.767 0.101,-1.45 0.86,-2.35 1.348,-3.499 0.661,-1.543 1.911,-1.806 3.27,-1.685 3.712,0.322 7.09,1.828 10.497,3.184 1.083,0.432 1.947,1.064 1.781,2.494 -0.119,1.021 0.118,2.097 -0.083,3.093 -0.351,1.762 -0.471,3.632 -1.619,5.151 -0.293,0.397 -0.725,0.726 -0.898,1.16 C 9.889,-9.99 9.94,-9.104 9.546,-8.485 8.187,-6.366 6.641,-4.44 4.782,-2.866 3.815,-2.045 2.765,-1.315 1.598,-0.715 1.085,-0.454 0.559,-0.21 0,0"
             style="fill:#c41e67;fill-opacity:1;fill-rule:nonzero;stroke:none"
             id="path166"
             inkscape:connector-curvature="0" /></g><g
           id="g168"
           transform="translate(208.4424,300.1328)"><path
             d="m 0,0 c 0.596,-0.383 1.174,-0.781 1.702,-1.243 0.017,-0.016 0.037,-0.026 0.056,-0.042 1.946,-1.697 4.159,-2.845 6.379,-4.081 1.561,-0.867 3.13,-0.782 4.618,-0.492 2.03,0.397 3.955,1.413 5.929,-0.147 0.234,-0.186 0.79,-0.056 1.162,0.049 2.254,0.62 4.472,1.668 6.753,1.83 0.953,0.066 1.79,0.305 2.565,0.634 0.686,0.294 1.32,0.663 1.922,1.085 0.707,0.501 1.377,1.06 2.049,1.629 0.918,0.777 1.328,2.137 2.219,2.964 1.669,1.557 2.482,3.3 2.189,5.598 -0.067,0.519 0.285,1.097 0.444,1.644 1.032,-2.609 1.108,-2.653 3.592,-1.732 -0.361,1.308 -0.722,2.627 -1.083,3.939 -0.091,0.332 -0.184,0.661 -0.271,0.989 -0.508,1.849 -1.017,3.693 -1.527,5.545 0.212,0.075 0.424,0.146 0.638,0.22 0.717,-1.49 1.833,-2.922 2.053,-4.482 0.05,-0.34 0.109,-0.674 0.171,-0.997 0.062,-0.305 0.132,-0.6 0.211,-0.888 0.388,-1.398 1.023,-2.585 2.209,-3.452 0.515,0.257 1.052,0.775 1.407,0.673 C 47.161,8.731 48.885,8.058 50.833,7.37 50.08,6.401 49.547,5.71 49.01,5.011 c 1.475,0.326 3.613,0.757 3.825,1.648 0.397,1.669 2.691,1.154 2.406,2.884 1.427,-0.944 2.661,-2.332 4.08,-2.564 2.213,-0.364 4.677,-0.357 6.8,0.275 1.707,0.51 3.421,0.319 5.104,0.678 2.111,0.45 3.66,1.272 5.066,2.72 0.458,0.477 0.858,0.882 1.599,1.055 0.106,0.025 0.197,0.06 0.319,0.076 0.133,0.014 0.274,0.031 0.426,0.05 0.988,0.123 2.278,0.384 2.386,1.629 0.242,2.788 3.797,2.361 4.293,4.767 1.494,-0.068 1.987,1.128 2.626,2.113 0.668,1.036 1.214,2.165 1.969,3.13 1.304,1.666 2.585,3.28 2.627,5.555 0.008,0.523 0.436,1.087 0.796,1.538 1.024,1.288 2.175,2.48 3.151,3.8 1.039,1.406 1.475,3.28 3.32,4.055 0.25,0.104 0.269,0.695 0.45,1.026 0.228,0.414 0.394,0.852 0.557,1.294 0.365,0.992 0.71,1.995 1.69,2.739 0.817,0.62 1.588,1.412 2.192,2.274 0.264,0.381 0.504,0.769 0.683,1.169 0.055,0.124 0.107,0.254 0.162,0.381 0.329,0.773 0.6,1.573 0.756,2.392 0.034,0.198 0.07,0.401 0.088,0.597 0.116,1.072 -0.011,2.171 -0.552,3.28 -0.174,0.365 -0.191,0.952 -0.025,1.313 0.371,0.801 0.787,1.586 1.196,2.37 0.493,0.956 0.984,1.912 1.367,2.912 0.805,2.088 2.175,4.069 1.238,6.594 -0.238,0.653 0.301,1.802 0.806,2.486 0.952,1.282 0.939,2.425 0.128,3.477 0.36,0.54 0.733,0.969 0.962,1.46 1.447,3.061 2.895,6.13 4.278,9.219 0.664,1.483 1.441,2.818 2.518,4.087 1.378,1.63 2.364,3.608 3.428,5.484 0.291,0.517 0.249,1.223 0.334,1.69 1.164,1.029 2.361,1.965 3.409,3.048 0.819,0.84 1.422,1.886 2.168,2.798 2.353,2.858 4.651,5.74 5.999,9.251 0.609,1.592 1.282,3.164 1.919,4.746 0.496,1.233 0.814,2.451 -0.525,3.771 -0.603,-0.895 -1.036,-1.693 -1.618,-2.361 -0.396,-0.448 -0.992,-0.99 -1.518,-1.01 -1.725,-0.04 -2.846,-0.682 -3.49,-2.354 -0.272,-0.707 -0.802,-1.659 -1.963,-1.04 0.331,1.601 -2.623,5.396 -4.106,5.552 -0.694,-1.208 -1.344,-2.338 -1.842,-3.213 -0.998,0.227 -2.121,0.823 -2.498,0.515 -1.452,-1.189 -2.643,-0.744 -4.004,0.012 -1.051,0.592 -2.117,-0.018 -2.029,-1.157 0.095,-1.188 0.327,-2.388 0.66,-3.538 0.34,-1.183 0.868,-2.305 1.411,-3.677 -1.49,-0.583 -2.665,-1.242 -3.921,-1.48 -1.723,-0.33 -1.812,-1.269 -1.016,-2.371 0.479,-0.665 1.013,-1.288 1.558,-1.889 0.531,-0.593 1.065,-1.161 1.565,-1.719 0.084,-0.095 0.175,-0.187 0.256,-0.283 -0.058,0.001 -0.139,-0.001 -0.214,-0.003 -0.353,-0.009 -0.881,-0.04 -1.377,0.076 -1.016,0.241 -1.712,0.012 -2.014,-1.02 -0.273,-0.95 -0.645,-1.876 0.678,-2.493 0.356,-0.169 0.688,-0.391 1.016,-0.614 0.292,-0.191 0.583,-0.376 0.86,-0.587 0.249,-0.188 0.502,-0.375 0.753,-0.56 0.307,-0.229 0.52,-0.594 0.773,-0.895 -0.119,-0.194 -0.237,-0.39 -0.357,-0.583 -0.595,0.365 -1.185,0.733 -1.779,1.104 -0.329,0.198 -0.656,0.405 -0.984,0.608 -0.131,-0.131 -0.263,-0.258 -0.393,-0.386 0.09,-0.775 0.057,-1.576 0.003,-2.375 -0.048,-0.742 -0.11,-1.483 -0.112,-2.203 0.003,-0.038 0.001,-0.073 0.003,-0.11 0.011,-1.663 0.39,-3.202 2.165,-4.366 -0.645,-0.451 -1.451,-0.784 -1.79,-1.199 -0.073,-0.088 -0.157,-0.178 -0.177,-0.277 -0.079,-0.392 0.025,-0.826 0.18,-1.263 0.147,-0.42 0.344,-0.85 0.46,-1.253 -1.666,0.377 -3.268,0.725 -4.848,1.108 -0.305,0.072 -0.611,0.138 -0.914,0.215 -0.455,0.116 -0.872,0.454 -1.242,0.765 -0.057,0.052 0.203,0.714 0.402,0.769 0.447,0.11 0.967,0.103 1.418,-0.014 0.27,-0.065 0.534,-0.164 0.793,-0.263 0.401,-0.148 0.797,-0.309 1.193,-0.462 -0.052,0.45 -0.156,0.789 -0.285,1.081 -0.014,0.031 -0.022,0.06 -0.04,0.088 -0.111,0.24 -0.243,0.439 -0.397,0.585 -0.663,0.628 -1.639,0.512 -2.485,0.339 0.206,0.762 0.401,1.473 0.593,2.185 -0.727,0.159 -1.691,0.692 -2.141,0.41 -1.443,-0.901 -2.693,-2.105 -4.017,-3.192 l 0.321,-0.632 c 1.185,0.25 2.372,0.503 3.556,0.755 -1.094,-1.139 -0.147,-3.644 -2.562,-3.55 C 99.45,79.34 99.398,78.698 99.369,78.407 98.1,77.43 97.086,76.652 96.014,75.822 c -1.27,2.137 -3.131,-0.377 -4.599,0.683 -1.211,-2.038 -1.965,-4.062 -1.784,-6.343 -2.762,2.65 -5.332,5.113 -7.965,7.635 -0.642,-0.655 -1.066,-1.089 -1.501,-1.53 -0.191,0.205 -0.369,0.333 -0.346,0.394 0.521,1.577 0.321,2.73 -0.48,3.537 -0.451,0.452 -1.101,0.796 -1.926,1.046 -0.108,0.032 -0.206,0.073 -0.321,0.106 -0.435,0.107 -0.791,0.482 -1.209,0.682 -1.498,0.707 -4.334,-0.088 -5.093,-1.501 -0.921,-1.719 -2.571,-2.322 -3.902,-3.05 -0.338,1.189 -0.629,2.212 -0.901,3.161 0.986,0.556 2.283,1.216 3.487,2.016 0.887,0.581 1.023,1.67 0.169,2.171 -0.59,0.348 -1.197,0.772 -1.876,0.978 -0.266,0.079 -0.544,0.132 -0.835,0.121 -0.35,-0.013 -0.725,-0.099 -1.126,-0.302 -1.579,-0.794 -3.316,-1.247 -5.463,-0.618 1.833,0.456 3.365,0.744 4.842,1.219 0.376,0.123 0.67,0.236 0.931,0.348 1.278,0.548 1.157,1.068 -0.077,2.438 -0.024,0.025 -0.039,0.043 -0.059,0.066 -0.221,0.242 -0.372,0.55 -0.587,0.799 -0.156,0.177 -0.3,0.364 -0.45,0.542 -0.806,0.971 -1.591,1.973 -2.418,2.921 -0.653,0.753 -1.334,1.475 -2.113,2.065 -2.772,2.103 -6.14,3.204 -9.672,3.132 -1.45,-0.029 -2.904,-0.729 -4.315,-1.247 -0.341,-0.128 -0.516,-0.739 -0.742,-1.142 -0.491,-0.867 -0.964,-1.741 -1.471,-2.664 0.514,-0.146 1,-0.284 1.485,-0.423 -0.556,-0.336 -1.097,-0.288 -1.569,-0.45 -0.372,-0.121 -0.881,-0.445 -0.955,-0.766 -0.183,-0.787 -0.332,-1.576 -0.478,-2.38 -0.153,-0.856 -0.302,-1.724 -0.466,-2.619 -0.235,0.216 -0.509,0.468 -0.877,0.807 -0.158,0.146 -0.327,0.303 -0.525,0.485 -0.259,-1.396 -0.584,-2.649 -0.33,-3.853 0.118,-0.582 0.363,-1.152 0.838,-1.722 -0.314,-0.102 -0.581,-0.192 -0.819,-0.271 -0.153,-0.05 -0.302,-0.102 -0.414,-0.139 -0.057,-1.268 -0.116,-2.486 -0.172,-3.709 -0.057,-1.163 -0.112,-2.328 -0.166,-3.549 0.726,0.161 1.514,0.329 2.291,0.497 0.029,0.539 0.053,1.018 0.078,1.511 0.01,0.178 0.018,0.356 0.029,0.547 0.002,0.043 0.005,0.083 0.008,0.127 0.412,-0.812 0.739,-1.455 1.018,-2.01 1.868,-0.031 3.701,-0.065 5.52,-0.096 2.121,-0.037 4.228,-0.075 6.328,-0.109 0.018,-0.176 0.039,-0.36 0.06,-0.536 -1.062,-0.14 -2.147,-0.481 -3.184,-0.379 -1.073,0.105 -2.144,0.175 -3.214,0.224 -2.743,0.113 -5.477,0.016 -8.195,-0.454 -0.358,-0.056 -0.787,-0.461 -1.016,-0.865 0.178,-0.527 0.365,-1.04 0.527,-1.582 0.233,-0.779 0.197,-1.472 -0.001,-2.076 -0.228,-0.692 -0.676,-1.263 -1.266,-1.65 -0.003,-0.033 -0.006,-0.064 -0.009,-0.096 0.222,-0.95 0.401,-1.917 0.528,-2.917 0.039,-0.311 0.018,-0.597 -0.021,-0.875 0.543,-1.848 0.911,-3.754 0.963,-5.802 0.02,-0.805 -0.18,-1.467 -0.512,-1.994 0.141,-0.411 0.263,-0.832 0.392,-1.248 0.233,0.15 0.478,0.297 0.795,0.419 -0.09,-0.741 -0.243,-1.292 -0.211,-1.828 0.045,-0.639 0.246,-1.265 0.379,-1.898 -0.011,-0.011 -0.026,-0.02 -0.04,-0.03 0.039,-0.152 0.084,-0.294 0.117,-0.449 0.188,-0.847 0.064,-1.629 -0.25,-2.307 0.888,-2.838 1.706,-5.691 2.197,-8.666 0.323,-1.964 -0.848,-3.02 -2.321,-3.291 0.661,-1.714 1.359,-3.418 2.13,-5.111 0.487,-1.066 0.31,-2.025 -0.215,-2.776 0.36,-0.876 0.714,-1.76 1.028,-2.654 1.083,-3.052 -3.351,-6.223 -5.617,-3.576 -1.227,1.435 -2.34,2.901 -3.418,4.402 -0.422,0.585 -0.851,1.157 -1.259,1.766 -0.05,0.057 -0.098,0.115 -0.149,0.183 -0.55,-0.025 -1.129,0.073 -1.709,0.409 -0.724,0.422 -1.394,0.868 -2.036,1.329 -0.951,0.69 -1.795,1.442 -2.571,2.236 -0.977,1.007 -1.846,2.088 -2.56,3.301 -1.829,1.587 -3.473,3.321 -5.009,5.158 -1.803,2.16 -3.452,4.46 -5.026,6.853 -0.041,0.062 -0.047,0.125 -0.083,0.187 -0.537,0.323 -1.019,0.709 -1.519,1.007 -1.842,1.091 -1.918,1.288 -3.486,-0.32 C 8.885,49.076 8.313,48.89 7.836,48.61 9.579,50.359 9.83,51.081 8.87,52.45 8.446,52.229 8.024,52.006 7.565,51.769 6.831,54.695 6.54,54.956 3.71,55.191 3.272,55.231 2.807,55.164 2.371,55.071 1.613,54.909 0.916,54.974 0.298,55.231 c -0.492,0.207 -0.915,0.569 -1.294,1.017 -0.116,0.136 -0.243,0.244 -0.347,0.402 -0.351,0.535 -0.868,0.986 -1.381,1.388 -1.097,0.859 -2.24,1.662 -3.363,2.488 0.057,0.125 0.111,0.258 0.166,0.387 0.504,-0.116 1.007,-0.262 1.517,-0.346 0.406,-0.069 0.821,-0.071 1.234,-0.1 -0.196,0.412 -0.291,1.058 -0.609,1.195 -1.72,0.764 -3.491,1.399 -5.242,2.076 -0.332,0.125 -0.873,0.142 -0.979,0.366 -0.115,0.25 -0.237,0.417 -0.361,0.548 -0.449,-0.38 -0.97,-0.651 -1.531,-0.805 0.212,-0.255 0.419,-0.504 0.643,-0.773 -5.575,-0.041 -9.646,-2.926 -13.512,-6.58 0.019,0.674 0.032,1.049 0.051,1.664 -1.307,-0.818 -2.432,-1.527 -3.561,-2.233 0.076,-0.197 0.149,-0.392 0.219,-0.588 0.703,0.096 1.402,0.188 2.106,0.285 0.115,-0.077 0.233,-0.156 0.352,-0.232 -2.976,-2.044 -2.312,-4.523 -1.108,-7.261 0.67,0.342 1.325,0.734 2.03,0.997 0.244,0.094 0.6,-0.103 0.911,-0.184 -1.461,-1.332 -1.975,-2.722 -0.718,-4.632 0.648,-0.976 0.966,-2.365 1.096,-3.454 0.142,-1.2 0.424,-2.159 1.115,-3.013 1.252,-1.554 1.348,-3.354 1.505,-5.224 0.132,-1.533 -0.409,-3.586 1.533,-3.802 0.363,-1.524 0.515,-2.771 0.957,-3.893 1.027,-2.59 1.935,-5.292 3.413,-7.615 0.858,-1.347 2.004,-2.675 2.502,-4.112 0.857,-2.477 2.223,-4.501 3.856,-6.3 0.533,-0.588 1.097,-1.149 1.681,-1.698 0.566,-0.53 1.147,-1.051 1.745,-1.556 C -4.6,3.238 -4.118,2.838 -3.632,2.447 -3.564,2.39 -3.497,2.334 -3.429,2.279 -3.418,2.271 -3.406,2.264 -3.394,2.253 -2.952,1.897 -2.479,1.576 -1.997,1.264 -1.335,0.838 -0.658,0.428 0,0 m 53.821,61.141 c -2.052,-1.026 -4.342,-0.371 -6.277,-1.582 0.51,1.34 0.529,1.26 5.952,2.312 2.248,0.436 4.407,1.311 6.606,1.989 0.06,-0.171 0.121,-0.345 0.181,-0.517 -2.165,-0.712 -4.445,-1.193 -6.462,-2.202 m -2.275,3.049 c 0.46,0.579 0.924,1.153 1.493,1.857 2.113,-2.318 4.432,-0.411 6.58,-0.562 0.018,-0.184 0.034,-0.372 0.051,-0.556 -2.643,-0.366 -5.283,-0.736 -7.923,-1.111 -0.069,0.128 -0.137,0.248 -0.201,0.372 m 31.123,7.06 c 0.164,-0.21 0.326,-0.422 0.488,-0.627 -1.443,-1.078 -2.889,-2.155 -4.337,-3.234 l -0.244,0.303 c 1.384,1.164 2.399,2.795 4.093,3.558 M 46.42,72.485 c 0.809,0 1.617,0.001 2.426,-0.001 2.94,-0.003 5.881,-0.007 8.823,-0.011 -0.012,-0.327 -0.022,-0.66 -0.033,-0.99 -2.897,0.113 -5.791,0.227 -8.687,0.342 -0.852,0.031 -1.704,0.065 -2.557,0.1 z m -3.599,-2.487 c 0.409,-0.178 1.074,-0.266 1.18,-0.556 0.123,-0.337 0.206,-0.701 0.294,-1.056 0.179,-0.704 0.333,-1.432 0.512,-2.206 -0.945,0.13 -1.612,0.216 -1.968,0.261 -0.084,0.831 -0.2,1.635 -0.235,2.451 -0.003,0.076 0.021,0.155 0.033,0.231 0.035,0.291 0.125,0.584 0.184,0.875 M 41.066,20.485 c 1.156,-1.21 2.25,-2.49 3.488,-3.604 0.672,-0.604 1.589,-0.933 2.171,-1.258 0.561,-0.961 1.104,-1.894 1.645,-2.824 0.06,-0.105 0.123,-0.21 0.182,-0.314 0.327,-0.562 0.656,-1.124 0.981,-1.68 -0.059,-0.084 -0.112,-0.167 -0.169,-0.25 -0.631,0.655 -1.251,1.319 -1.884,1.973 -0.149,0.159 -0.305,0.309 -0.462,0.464 -0.195,0.196 -0.38,0.398 -0.58,0.584 -1.093,1.022 -2.391,1.848 -3.386,2.951 -0.962,1.065 -1.649,2.377 -2.46,3.58 0.159,0.126 0.316,0.253 0.474,0.378 m -62.521,27.976 c -0.021,0.149 -0.079,0.602 -0.161,1.207 1.124,-0.3 1.662,1.366 2.704,1.189 0.223,-0.036 0.459,-0.128 0.742,-0.376 -0.067,-0.18 -0.137,-0.363 -0.202,-0.543 -0.25,-0.678 -0.504,-1.368 -0.793,-2.142 -2.532,-0.724 -3.358,-0.539 -4.452,1.113 0.695,-0.139 1.388,-0.288 2.162,-0.448"
             style="fill:#c41e67;fill-opacity:1;fill-rule:nonzero;stroke:none"
             id="path170"
             inkscape:connector-curvature="0" /></g><g
           id="g172"
           transform="translate(178.1924,495.8574)"><path
             d="m 0,0 c 0.775,-1.544 1.273,-3.225 1.837,-4.865 0.908,-2.642 2.019,-3.358 5.544,-3.486 -0.374,0.485 -0.663,0.862 -0.903,1.182 1.927,0.953 3.854,1.94 5.815,2.848 0.373,0.175 0.898,0.091 1.339,0.025 0.925,-0.145 1.597,0.322 1.493,1.13 -0.211,1.653 0.762,2.654 1.612,3.791 0.238,0.316 0.237,0.864 0.236,1.302 -0.007,2.024 -0.085,4.051 -0.077,6.076 0.028,4.583 -2.3,8.294 -5.001,11.554 -2.032,2.455 -4.726,4.504 -8.298,4.867 -1.076,0.11 -1.956,0.84 -3.098,-0.044 -0.866,-0.665 -2.349,-0.147 -3.038,-1.467 -0.388,-0.74 -1.098,-1.307 -1.574,-2.009 -0.4,-0.591 -0.875,-1.247 -0.959,-1.917 -0.21,-1.662 -0.267,-3.352 -0.264,-5.031 -10e-4,-0.483 0.398,-0.971 0.745,-1.747 C -5.799,11.318 -4.706,10.06 -4.375,8.898 -3.878,7.167 -3.328,5.423 -2.536,3.813 -1.869,2.455 -0.68,1.351 0,0"
             style="fill:#c41e67;fill-opacity:1;fill-rule:nonzero;stroke:none"
             id="path174"
             inkscape:connector-curvature="0" /></g><g
           id="g176"
           transform="translate(166.792,439.0806)"><path
             d="M 0,0 C 0.115,0.073 0.238,0.139 0.358,0.207 0.796,0.461 1.257,0.691 1.691,0.91 2.63,1.38 3.418,1.808 3.478,2.315 3.65,3.8 4.599,4.181 5.351,4.971 5.633,5.271 5.831,5.957 5.675,6.272 5.512,6.609 4.841,6.945 4.464,6.876 3.914,6.78 3.429,6.32 2.609,5.833 2.735,6.61 2.651,7.566 2.955,7.709 c 0.57,0.272 0.813,0.702 0.967,1.178 0.192,0.595 0.246,1.266 0.594,1.81 -0.265,-0.1 -0.533,-0.209 -0.82,-0.319 -0.268,-0.103 -0.55,-0.215 -0.877,-0.342 0.504,0.946 0.898,1.683 1.288,2.419 -0.643,0.407 -1.202,0.761 -1.762,1.119 0.051,0.091 0.104,0.182 0.156,0.272 0.452,-0.14 0.901,-0.286 1.348,-0.431 0.185,0.133 0.367,0.268 0.552,0.397 -0.349,0.889 -0.539,1.892 -1.075,2.648 -1.345,1.907 -1.628,4.019 -1.728,6.259 -0.037,0.855 -0.367,2.112 -0.969,2.436 -1.001,0.544 -1.964,1.476 -3.598,0.625 -1.521,-0.795 -3.542,-0.631 -5.342,-0.9 -0.916,-0.136 -1.863,-0.189 -2.737,-0.457 -1.195,-0.371 -1.996,-1.903 -1.505,-2.837 1.484,-2.832 2.961,-5.677 4.577,-8.435 1.55,-2.647 3.207,-5.24 4.96,-7.758 C -2.539,4.7 -2.369,3.386 -0.905,3.641 -0.672,3.681 -0.148,2.841 0,2.339 0.02,2.27 0.024,2.195 0.034,2.125 0.098,1.726 0.051,1.233 0.018,0.496 0.011,0.335 0.004,0.187 0,0 m -0.994,17.253 c -0.147,0.456 -0.363,1.127 -0.633,1.972 -1.684,-0.693 -2.432,0.043 -2.595,1.638 2.179,0.446 3.722,-0.617 4.373,-3.053 0.318,-1.194 0.496,-2.426 0.783,-3.861 -0.819,-0.112 -1.679,-0.231 -2.536,-0.349 1.179,0.489 1.478,1.164 0.91,2.308 -1.419,-1.738 -1.84,-1.855 -4.058,-1.025 1.282,0.808 2.431,1.535 3.756,2.37"
             style="fill:#c41e67;fill-opacity:1;fill-rule:nonzero;stroke:none"
             id="path178"
             inkscape:connector-curvature="0" /></g><g
           id="g180"
           transform="translate(238.6841,461.1333)"><path
             d="M 0,0 -0.011,0.017 C -0.03,0.016 -0.045,0.015 -0.061,0.014 L 0.01,-0.015 c -0.681,-0.36 -1.555,-0.56 -2.003,-1.109 -0.709,-0.866 -1.104,-1.824 -1.296,-2.826 -0.083,-0.463 -0.121,-0.931 -0.126,-1.407 -0.005,-0.332 0.004,-0.667 0.035,-1.003 0.006,-0.081 0.017,-0.16 0.022,-0.24 0.024,-0.226 0.052,-0.454 0.089,-0.684 0.103,-0.64 0.266,-1.28 0.441,-1.92 0.14,-0.505 0.286,-1.027 0.431,-1.547 0.06,-0.209 0.118,-0.412 0.174,-0.624 1.982,-0.774 2.283,-0.987 2.513,-1.696 0.006,-0.015 0.009,-0.026 0.017,-0.041 -0.822,-0.199 -1.66,-0.403 -2.801,-0.682 0.14,-0.504 0.278,-0.985 0.413,-1.454 0.194,-0.67 0.378,-1.313 0.556,-1.939 0.21,-0.734 0.397,-1.458 0.57,-2.175 0.035,-0.14 0.073,-0.282 0.102,-0.422 0.384,-1.696 1.277,-2.194 2.681,-1.538 0.095,-0.102 0.182,-0.22 0.275,-0.331 0.507,-0.629 0.944,-1.339 1.416,-1.401 0.012,-0.002 0.023,-0.013 0.034,-0.017 2.096,-0.134 2.826,-2.093 4.355,-2.975 1.353,-0.785 2.468,-1.361 3.959,-0.681 0.102,0.049 0.249,-0.006 0.447,-0.012 0.113,-0.405 0.23,-0.825 0.338,-1.218 1.378,0.071 2.676,0.143 4.311,0.228 0.091,0.85 0.238,1.713 0.257,2.577 0.025,1.257 0.015,2.517 0.008,3.774 -0.003,0.619 0.009,1.241 0.005,1.865 -0.029,2.986 1.271,5.936 0.066,8.973 -0.219,0.548 -0.386,1.152 -0.484,1.763 -0.103,0.645 -0.132,1.301 -0.055,1.908 0.069,0.543 0.056,1.06 -0.021,1.546 -0.23,1.488 -1.029,2.753 -1.76,4.024 -0.623,1.09 -1.415,1.653 -2.346,1.711 C 12.046,0.448 11.41,0.29 10.723,-0.07 8.337,-1.316 5.989,-1.181 3.644,-0.754 3.177,-0.67 2.708,-0.576 2.241,-0.476 1.491,-0.314 0.748,-0.144 0,0 m 1.097,-11.708 c 0.524,-0.132 0.993,-0.247 1.472,-0.366 0.214,-0.051 0.421,-0.104 0.652,-0.16 -0.188,-0.31 -0.397,-0.659 -0.605,-1.011 -0.263,-0.443 -0.529,-0.886 -0.801,-1.339 -0.056,-0.097 -0.117,-0.197 -0.176,-0.296 -0.02,0.114 -0.043,0.25 -0.062,0.365 -0.041,0.236 -0.079,0.478 -0.124,0.728 -0.062,0.351 -0.116,0.695 -0.179,1.056 -0.059,0.343 -0.117,0.688 -0.177,1.023 m 4.174,-5.07 c -0.169,-0.596 -0.244,-1.243 -0.272,-1.936 -0.211,0.547 -0.424,1.093 -0.634,1.64 -0.123,-0.024 -0.244,-0.045 -0.358,-0.065 -0.036,-0.333 -0.072,-0.675 -0.112,-1.043 -0.032,-0.309 -0.067,-0.641 -0.105,-1.028 -0.257,0.665 -0.45,1.296 -0.564,1.908 -0.143,0.763 -0.137,1.483 0.059,2.158 0.242,0.836 0.772,1.609 1.75,2.308 0.139,-0.448 0.3,-0.952 0.489,-1.551 0.567,0.058 1.117,0.115 1.666,0.17 -1.08,-0.709 -1.634,-1.566 -1.919,-2.561"
             style="fill:#c41e67;fill-opacity:1;fill-rule:nonzero;stroke:none"
             id="path182"
             inkscape:connector-curvature="0" /></g><g
           id="g184"
           transform="translate(237.4604,463.1045)"><path
             d="m 0,0 c -0.039,-0.01 -0.08,-0.022 -0.119,-0.032 0.075,-0.11 0.133,-0.192 0.204,-0.295 0.425,-0.61 0.785,-1.128 1.127,-1.627 0.849,0.073 1.705,0.123 2.557,0.183 0.48,0.033 0.954,0.077 1.434,0.125 0.555,0.06 1.115,0.132 1.663,0.237 1.442,0.279 2.837,0.895 4.176,1.517 0.485,0.224 0.757,0.908 1.129,1.386 C 11.477,1.668 10.774,2.017 10.09,1.988 8.989,1.938 7.885,1.407 6.816,1.494 6.134,1.553 5.484,1.502 4.841,1.399 4.331,1.317 3.827,1.197 3.323,1.055 2.236,0.74 1.157,0.327 0,0"
             style="fill:#c41e67;fill-opacity:1;fill-rule:nonzero;stroke:none"
             id="path186"
             inkscape:connector-curvature="0" /></g><g
           id="g188"
           transform="translate(231.855,474.751)"><path
             d="M 0,0 C 0.441,-1.502 -0.192,-3.869 2.156,-4.091 2.252,-4.339 2.345,-4.562 2.437,-4.786 2.714,-5.447 2.965,-6.025 3.163,-6.57 3.291,-6.896 3.4,-7.225 3.476,-7.552 c 0.016,-0.06 0.035,-0.106 0.048,-0.166 0.108,-0.398 0.226,-0.737 0.379,-1 0.532,-0.932 1.386,-1.069 2.88,-0.54 0.143,0.051 0.288,0.106 0.438,0.165 0.558,0.221 1.154,0.477 1.72,0.658 0.656,0.211 1.286,0.318 1.787,0.127 2.319,-0.892 4.209,0.312 6.234,0.62 1.875,0.288 2.023,0.923 1.274,2.684 -0.226,0.526 -0.689,0.954 -0.989,1.459 -0.571,0.961 -1.226,1.898 -1.61,2.933 -0.422,1.135 -0.571,2.368 -0.842,3.555 0.311,1.98 0.215,2.503 -1.296,4.506 C 10.825,5.753 8.139,4.053 5.453,2.349 5.342,2.458 5.23,2.568 5.124,2.68 6.321,4.417 7.743,6.124 5.723,8.437 8.72,8.524 6.309,5.655 8.029,5.307 c 1.468,0.823 3.033,1.635 4.524,2.571 0.379,0.24 0.755,0.885 0.714,1.3 -0.103,0.988 -0.151,2.266 -0.769,2.863 -1.236,1.195 -2.72,2.259 -4.58,2.397 C 7.154,14.492 6.371,14.53 5.618,14.423 4.099,14.208 2.605,13.73 1.089,13.668 -0.031,13.626 -0.83,13.541 -1.146,12.322 -1.404,11.34 -2.094,10.324 -1.96,9.425 -1.604,7.069 -1.187,4.715 -0.632,2.399 -0.495,1.833 -0.338,1.271 -0.186,0.707 -0.12,0.475 -0.066,0.234 0,0"
             style="fill:#c41e67;fill-opacity:1;fill-rule:nonzero;stroke:none"
             id="path190"
             inkscape:connector-curvature="0" /></g><g
           id="g192"
           transform="translate(170.5,430.5576)"><path
             d="m 0,0 c 0.644,-1.599 1.319,-3.644 2.62,-4.386 1.294,-0.739 1.901,-1.566 2.416,-3.035 0.792,0.391 1.429,0.754 2.098,1.03 0.587,0.238 1.213,0.385 1.821,0.572 0.1,-0.139 0.2,-0.28 0.299,-0.424 -0.872,-1.601 -0.413,-3.09 0.332,-4.474 0.492,-0.908 1.185,-1.724 1.875,-2.505 0.306,-0.342 0.884,-0.754 1.227,-0.674 0.361,0.093 0.776,0.705 0.837,1.137 0.164,1.205 0.285,2.321 1.345,3.197 0.274,0.225 0.134,1.224 -0.108,1.723 -0.217,0.442 -0.845,0.679 -1.335,1.041 -0.262,-0.676 -0.426,-1.107 -0.597,-1.556 -2.274,1.179 -3.932,2.49 -2.616,4.916 0.938,0.677 1.744,1.176 2.44,1.8 0.395,0.354 0.503,1.051 0.914,1.354 0.712,0.524 0.594,0.933 0.297,1.669 C 13.329,2.729 11.715,3.03 10.862,4.048 10.682,4.267 10.546,4.528 10.45,4.83 10.42,4.934 10.369,5.018 10.353,5.131 10.335,5.218 9.729,5.298 9.43,5.23 9.006,5.136 8.569,5.031 8.146,4.932 6.283,4.509 4.427,4.077 2.522,3.631 2.528,3.563 2.533,3.509 2.539,3.442 2.603,2.673 2.667,2 2.724,1.33 1.248,1.609 -0.337,0.846 0,0"
             style="fill:#c41e67;fill-opacity:1;fill-rule:nonzero;stroke:none"
             id="path194"
             inkscape:connector-curvature="0" /></g><g
           id="g196"
           transform="translate(207.2778,463.0923)"><path
             d="M 0,0 C -1.915,-0.345 -3.239,-1.667 -4.79,-2.124 -6.425,-2.608 -8.191,-2.656 -9.794,-3.618 -6.566,-5.904 -1.585,-4.119 0,0"
             style="fill:#c41e67;fill-opacity:1;fill-rule:nonzero;stroke:none"
             id="path198"
             inkscape:connector-curvature="0" /></g><g
           id="g200"
           transform="translate(203.4687,435.2905)"><path
             d="m 0,0 c 1.421,-1.765 5.05,-1.479 6.374,0.215 0.73,-0.243 1.39,-0.443 2.036,-0.691 1.09,-0.409 1.35,1.091 1.448,1.032 0.913,-0.541 1.14,0.152 1.437,0.744 0.309,-0.414 0.571,-0.762 0.91,-1.221 0.306,0.522 0.627,1.235 0.719,1.209 1.772,-0.551 1.249,0.704 1.276,1.545 0.02,0.646 0.123,1.294 0.097,1.938 -0.022,0.59 -0.03,1.201 -0.142,1.781 -0.033,0.178 -0.078,0.354 -0.137,0.523 -0.224,0.665 -0.107,1.256 -0.138,1.855 -0.009,0.16 -0.007,0.327 -0.007,0.493 0.006,1.681 0.416,3.431 -0.668,5.056 -0.918,1.378 -1.727,2.925 -2.145,4.516 -0.765,2.901 -2.721,4.587 -5.184,5.881 -1.553,0.816 -4.132,0.132 -4.384,-1.33 -0.199,-1.16 -0.922,-1.254 -1.641,-1.667 -1.87,-1.061 -4.214,-0.555 -5.998,-2.232 -1.428,-1.336 -2.345,-2.92 -1.228,-4.743 0.377,-0.615 0.635,-1.302 1.001,-1.926 0.565,-0.966 1.615,-1.875 1.686,-2.867 C -4.473,7.122 -3.298,4.62 -1.729,2.314 -1.28,1.655 -0.798,1.015 -0.298,0.379 -0.197,0.252 -0.102,0.125 0,0 M 3.825,2.605 C 3.734,2.574 3.645,2.54 3.556,2.506 2.892,3.328 2.206,4.137 1.578,4.984 1.472,5.125 1.355,5.263 1.252,5.408 1.093,5.635 1.347,6.145 1.415,6.527 1.739,6.439 2.272,6.449 2.364,6.248 2.396,6.181 2.418,6.108 2.448,6.041 2.949,4.916 3.375,3.754 3.825,2.605"
             style="fill:#c41e67;fill-opacity:1;fill-rule:nonzero;stroke:none"
             id="path202"
             inkscape:connector-curvature="0" /></g><g
           id="g204"
           transform="translate(156.54,492.9902)"><path
             d="m 0,0 c -0.731,1.007 -1.671,1.66 -2.711,2.134 -1.254,0.574 -2.637,0.918 -3.918,1.392 -1.282,0.479 -2.826,0.23 -3.653,0.281 -2.539,-1.047 -4.486,-3.766 -4.959,-6.307 -0.095,-0.504 -0.139,-1.003 -0.105,-1.479 0.004,-0.074 -0.007,-0.153 10e-4,-0.226 0.062,-0.575 0.168,-1.155 0.288,-1.733 0.337,-1.639 0.773,-3.272 0.609,-4.856 -0.002,-0.021 0,-0.039 0,-0.06 -0.237,-2.528 1.261,-4.182 2.567,-5.441 0.971,-0.939 1.716,-1.996 2.365,-3.1 1.321,-2.238 2.215,-4.69 3.578,-6.888 1.903,-3.061 4.531,-3.729 6.962,-0.979 1.19,1.346 2.629,2.262 4.416,2.616 1.29,0.254 2.903,2.498 2.64,3.768 -0.345,1.673 -0.743,3.344 -1.257,4.969 C 5.72,-12.413 4.664,-8.893 3.316,-5.492 2.788,-4.158 1.959,-2.941 1.148,-1.721 0.847,-1.271 0.55,-0.821 0.27,-0.363 0.187,-0.229 0.09,-0.124 0,0"
             style="fill:#c41e67;fill-opacity:1;fill-rule:nonzero;stroke:none"
             id="path206"
             inkscape:connector-curvature="0" /></g><g
           id="g208"
           transform="translate(184.0112,481.9976)"><path
             d="m 0,0 c 0.093,-0.209 0.232,-0.433 0.432,-0.684 0.772,-0.97 1.994,-1.984 2.061,-3.042 0.112,-1.702 0.602,-3.21 1.222,-4.696 0.25,-0.595 0.513,-1.187 0.79,-1.783 0.201,-0.431 0.338,-0.912 0.427,-1.406 0.099,-0.537 0.133,-1.088 0.115,-1.613 -0.061,-1.727 0.318,-3.259 1.6,-4.399 0.707,-0.629 1.798,-0.841 2.471,-1.495 1.627,-1.587 3.006,-1.797 4.879,-0.198 0.933,0.8 2.529,0.974 3.857,1.116 1.111,0.12 2.27,-0.347 3.406,-0.332 1.706,0.026 2.68,1.108 2.117,2.696 -0.85,2.396 -2.037,4.684 -3.182,6.969 -0.3,0.603 -0.626,1.188 -0.935,1.78 -0.521,0.998 -0.985,2.015 -1.104,3.199 -0.011,0.12 -0.039,0.235 -0.053,0.354 -0.009,0.064 -0.022,0.128 -0.031,0.193 -0.011,0.094 -0.028,0.193 -0.042,0.289 -0.18,1.263 -0.434,2.518 -0.652,3.778 C 17.277,0.706 17.174,0.687 17.074,0.671 16.936,1.025 16.782,1.377 16.658,1.737 16.631,1.816 16.595,1.891 16.573,1.973 16.381,2.646 16.245,3.344 15.876,3.858 15.58,4.266 15.137,4.555 14.369,4.603 14.359,4.604 14.348,4.609 14.336,4.607 13.661,4.652 12.958,4.853 12.274,4.987 11.716,5.092 11.173,5.156 10.688,5.009 9.154,4.556 7.642,4.03 6.138,3.476 5.661,3.302 5.181,3.124 4.706,2.945 3.537,2.503 2.371,2.055 1.202,1.614 1.107,1.577 1.013,1.541 0.916,1.504 -0.038,1.146 -0.301,0.675 0,0 m 16.095,-10.797 c -0.166,-0.104 -0.333,-0.208 -0.499,-0.31 -0.355,0.293 -0.717,0.583 -1.082,0.883 -0.318,-0.512 -0.588,-0.962 -1.06,-1.734 -0.184,1.12 -0.287,1.749 -0.387,2.345 0.639,0.108 1.273,0.214 2.326,0.385 0.137,-0.308 0.42,-0.938 0.702,-1.569 m -1.432,2.53 c -0.333,0.288 -0.669,0.463 -1.008,0.579 -1.24,0.431 -2.47,-0.113 -3.548,-0.168 0.056,0.69 0.08,1.373 0.179,2.046 0.041,0.284 0.087,0.656 0.196,0.902 0.049,0.109 0.106,0.205 0.185,0.242 0.142,0.076 0.368,0.049 0.601,-0.02 0.206,-0.068 0.418,-0.17 0.572,-0.277 1.039,-0.731 2.022,-1.543 3.13,-2.405 -0.007,-0.015 -0.021,-0.059 -0.028,-0.079 -0.057,-0.169 -0.157,-0.465 -0.279,-0.82 m -1.546,4.425 C 10.342,-2.438 9.52,-2.96 9.459,-5.297 9.454,-5.457 9.44,-5.599 9.446,-5.778 c -0.121,0.113 -0.238,0.22 -0.355,0.332 -0.508,0.478 -1.01,0.947 -1.458,1.368 0.44,0.426 0.878,0.843 1.506,1.455 -1.408,0.491 -2.704,0.743 -2.223,2.318 0.185,0.604 0.805,1.006 1.583,1.151 0.616,0.115 1.33,0.074 2.024,-0.175 0.032,-0.609 0.064,-1.221 0.093,-1.766 0.006,-0.096 0.013,-0.21 0.015,-0.299 1.237,-0.17 2.272,-0.313 3.668,-0.506 -0.556,-0.909 -0.872,-1.435 -1.182,-1.942"
             style="fill:#c41e67;fill-opacity:1;fill-rule:nonzero;stroke:none"
             id="path210"
             inkscape:connector-curvature="0" /></g><g
           id="g212"
           transform="translate(242.9443,427.2622)"><path
             d="m 0,0 c -0.034,-0.28 0.062,-0.616 0.241,-1.039 0.015,-0.035 -0.168,-0.153 -0.306,-0.272 -0.335,0.347 -0.672,0.695 -0.735,0.76 -1.329,-0.417 -2.495,-0.738 -3.597,-1.115 -0.29,-0.098 -0.579,-0.198 -0.862,-0.306 -0.294,-0.111 -0.57,-0.279 -0.844,-0.452 -0.17,-0.108 -0.334,-0.22 -0.495,-0.342 -0.199,-0.149 -0.405,-0.295 -0.594,-0.449 -0.413,-0.345 -0.805,-0.723 -1.197,-1.101 -0.768,-0.739 -1.532,-1.485 -2.424,-2.017 -0.69,-0.409 -1.433,-0.751 -2.237,-0.834 -0.633,-0.062 -1.301,0.039 -2.014,0.41 -0.021,0.011 -0.04,0.017 -0.062,0.029 -0.705,0.382 -1.91,-0.158 -3.254,-0.323 0.684,-0.747 1.352,-1.198 1.286,-1.447 -0.581,-2.132 1.355,-2.252 2.255,-3.287 0.132,0.238 0.241,0.434 0.355,0.645 0.258,0.465 0.496,0.896 0.725,1.303 0.158,-0.045 0.31,-0.089 0.467,-0.134 -0.149,-1.32 -0.304,-2.633 -0.457,-3.965 -0.087,0.115 -0.174,0.217 -0.268,0.308 -0.603,0.603 -1.335,0.726 -1.908,0.024 0.166,-0.68 0.489,-1.415 0.346,-1.524 -1.005,-0.751 -2.108,-1.372 -3.199,-2.047 0.29,0.826 0.574,1.641 0.881,2.522 -0.946,-0.198 -1.616,-0.337 -2.228,-0.468 -0.161,-0.782 -0.295,-1.421 -0.486,-2.345 -1.762,0.768 -3.697,-1.28 -5.338,0.834 -1.162,1.498 -2.398,2.87 -1.366,4.724 1.011,0.556 1.897,0.988 2.728,1.509 1.184,0.74 2.148,0.57 3.002,-0.563 0.498,-0.661 1.068,-1.273 1.606,-1.905 -0.585,3.124 -0.585,3.124 1.662,4.382 -0.666,0.379 -1.151,0.894 -1.622,0.884 -2.274,-0.065 -4.552,-0.209 -6.816,-0.444 -2.193,-0.228 -4.016,-1.159 -5.218,-3.137 -0.198,-0.316 -0.744,-0.526 -1.163,-0.597 -2.608,-0.434 -5.317,-4.394 -4.578,-6.883 0.393,-1.317 0.158,-2.171 -1.316,-2.17 -1.073,-10e-4 -2.141,0.327 -3.221,0.397 -0.902,0.061 -1.887,0.156 -2.691,-0.148 -0.461,-0.172 -0.639,-1.11 -0.942,-1.702 -1.824,0.824 -3.03,0.541 -4.044,-0.962 -0.873,-1.294 0.754,-1.127 1.276,-2.122 -0.53,0.004 -0.91,0.007 -1.243,0.011 -0.18,0.001 -0.362,0.002 -0.509,0.005 -0.188,-0.854 -0.438,-1.671 -0.755,-2.449 -0.721,-1.784 -1.827,-3.336 -3.621,-4.44 -1.18,-0.724 -1.887,-1.611 -1.796,-3.01 0.146,-2.246 -0.094,-2.675 -2.288,-3.644 0.138,-0.567 0.286,-1.157 0.433,-1.76 0.56,0.22 0.905,0.355 1.436,0.559 -0.346,-0.837 -0.615,-1.498 -0.889,-2.158 -0.477,0.398 -0.933,0.831 -1.441,1.195 -0.874,0.627 -1.829,1.222 -2.904,0.564 -1.369,-0.841 -2.914,-1.277 -3.903,-2.861 -0.038,-0.058 -0.086,-0.109 -0.123,-0.164 -0.596,-0.897 -1.381,-1.685 -2.22,-2.43 -0.527,-0.469 -1.067,-0.929 -1.591,-1.384 -0.126,-0.104 -0.23,-0.211 -0.341,-0.319 -1.647,-1.559 -1.969,-3.015 -0.963,-5.164 0.216,-0.47 0.379,-0.969 0.482,-1.23 0.181,-0.045 0.353,-0.085 0.53,-0.129 0.969,-0.23 1.868,-0.445 2.852,-0.678 0.374,-0.089 0.758,-0.181 1.168,-0.275 -0.166,-0.342 -0.344,-0.82 -0.616,-1.234 -0.122,-0.18 -0.269,-0.365 -0.424,-0.549 -0.647,-0.764 -1.466,-1.537 -1.375,-2.198 0.195,-1.461 0.365,-3.218 1.946,-4.203 0.255,-0.157 0.314,-0.755 0.328,-1.153 0.064,-1.502 0.071,-3.009 0.099,-4.436 4.558,-0.624 9.017,0.928 8.897,2.88 3.043,0.403 5.636,1.704 8.022,3.478 -0.193,0.206 -0.372,0.436 -0.513,0.722 -1.568,3.156 -1.758,5.576 -1.077,8.848 0.021,0.099 0.033,0.189 0.054,0.29 -1.014,1.298 -2.045,2.618 -3.068,3.929 -0.555,0.712 -1.107,1.417 -1.668,2.133 -0.296,0.379 -0.583,0.748 -0.88,1.129 1.467,1.036 1.528,-0.797 2.376,-1.493 0.145,0.532 0.254,0.925 0.401,1.438 0.579,-0.015 1.192,-0.031 1.931,-0.055 -0.01,-0.044 -0.019,-0.09 -0.029,-0.134 -0.134,-0.603 -0.266,-1.202 -0.405,-1.836 -0.234,-0.008 -0.474,-0.013 -0.732,-0.018 -0.22,-0.004 -0.45,-0.009 -0.713,-0.017 0.776,-1.549 2.162,-2.663 3.103,-4.03 0.023,0.052 0.065,0.094 0.092,0.143 0.596,1.14 1.821,2.07 3.11,2 0.037,0.2 0.108,0.387 0.183,0.572 0.13,0.339 0.313,0.653 0.553,0.934 0.626,0.745 1.559,1.244 2.513,1.324 0.35,0.027 0.693,0.011 1.031,-0.082 0.242,-0.069 0.483,-0.169 0.71,-0.314 0.364,-0.23 0.73,-0.44 1.096,-0.653 0.132,0.071 0.272,0.122 0.411,0.18 0.319,0.133 0.65,0.238 0.984,0.276 -0.219,0.513 -0.454,1.024 -0.656,1.542 0.04,0.02 0.082,0.04 0.12,0.058 0.143,0.07 0.283,0.137 0.424,0.206 0.235,-0.398 0.472,-0.804 0.713,-1.211 0.109,-0.186 0.221,-0.373 0.333,-0.565 0.213,0.004 0.418,-0.027 0.63,-0.028 0.572,-0.01 1.147,-0.013 1.705,-0.08 -0.177,0.3 -0.495,0.612 -0.986,1.067 -0.734,0.677 -1.692,1.342 -1.997,2.206 -0.347,0.983 -0.832,1.875 -1.37,2.735 -0.34,0.543 -0.698,1.075 -1.058,1.606 -0.183,0.271 -0.367,0.54 -0.545,0.811 -0.028,0.426 -0.052,0.85 -0.083,1.275 0.101,-0.239 0.207,-0.473 0.301,-0.715 0.114,-0.291 0.294,-0.468 0.493,-0.581 0,-0.017 0.004,-0.035 0.006,-0.052 0.027,-0.227 0.122,-0.397 0.244,-0.546 0.631,-0.774 2.275,-0.514 2.244,0.683 -0.007,0.122 0.009,0.242 0.01,0.363 -0.003,0.764 0.061,1.517 0.153,2.266 0.279,-0.598 0.533,-1.205 0.789,-1.811 0.127,-0.295 0.267,-0.58 0.382,-0.877 0.16,-0.403 0.422,-0.615 0.716,-0.692 0.517,-0.135 1.133,0.166 1.442,0.677 0.101,-0.47 0.211,-0.938 0.308,-1.407 0.079,-0.381 0.292,-0.621 0.555,-0.753 0.444,-0.227 1.021,-0.126 1.37,0.227 0.14,0.143 0.236,0.32 0.273,0.54 0.024,0.122 0.037,0.253 0.013,0.401 -0.045,0.256 -0.063,0.506 -0.1,0.758 0.019,-0.053 0.033,-0.106 0.054,-0.162 0.243,-0.646 1.071,-0.631 1.485,-0.211 0.13,0.128 0.221,0.3 0.238,0.507 0.136,-0.186 0.288,-0.374 0.464,-0.575 0.553,-0.64 1.349,-1.348 1.371,-2.502 -0.515,0.67 -1.04,1.335 -1.58,1.981 -0.068,0.085 -0.15,0.118 -0.226,0.122 -0.25,0.014 -0.478,-0.292 -0.292,-0.559 0.638,-0.919 1.248,-1.855 1.852,-2.798 -0.226,-0.087 -0.416,-0.233 -0.581,-0.4 -0.337,-0.345 -0.533,-0.826 -0.449,-1.43 0.118,-0.871 0.343,-1.714 0.615,-2.546 -0.189,-0.323 -0.292,-0.717 -0.254,-1.179 0.01,-0.144 0.044,-0.28 0.061,-0.424 1.642,-1 3.051,-2.32 4.112,-3.935 1.914,-1.048 3.588,-2.47 4.981,-4.198 1.194,0.145 2.451,-0.28 3.23,-1.503 l 1.23,-1.933 c -0.245,-0.32 -0.346,-0.739 -0.11,-1.151 0.288,-0.433 0.541,-0.879 0.789,-1.329 -0.606,0.867 -1.205,1.748 -1.798,2.643 -0.187,0.283 -0.435,0.378 -0.681,0.361 -0.078,0.104 -0.148,0.215 -0.225,0.325 -0.021,0.027 -0.047,0.039 -0.071,0.059 l -0.004,0.007 c -0.171,0.161 -0.389,0.155 -0.563,0.047 l -0.036,-0.022 c -0.017,-0.011 -0.03,-0.019 -0.044,-0.032 -0.197,-0.129 -0.312,-0.36 -0.165,-0.629 0.086,-0.156 0.18,-0.306 0.265,-0.461 -0.068,-0.197 -0.067,-0.411 0.012,-0.632 -0.012,-0.006 -0.026,-0.011 -0.04,-0.018 1.006,-1.617 2.029,-3.2 3.114,-4.739 0.434,-0.657 0.866,-1.316 1.296,-1.969 0.112,-0.171 0.253,-0.252 0.396,-0.289 0.259,-0.33 0.511,-0.663 0.782,-0.985 0.482,-0.577 1.288,-0.418 1.662,0.083 0.391,-0.631 0.779,-1.26 1.171,-1.888 0.74,-1.197 2.803,-0.762 2.482,0.807 -0.294,1.423 -0.671,2.813 -1.076,4.191 0.699,0.278 1.199,1.019 0.772,1.928 -1.048,2.24 -2.051,4.485 -3.1,6.712 0.161,0.343 0.207,0.769 0.046,1.255 -0.414,1.245 -0.875,2.47 -1.344,3.694 0.258,0.836 0.683,1.885 0.43,2.086 -0.423,0.342 -0.963,0.535 -1.531,0.697 -0.012,0.025 -0.025,0.057 -0.036,0.086 0.959,-0.135 1.948,0.58 1.74,1.761 -0.143,0.823 -0.329,1.607 -0.532,2.381 0.548,0.272 0.913,0.826 0.722,1.658 -0.272,1.171 -0.568,2.329 -0.882,3.48 1.107,-0.315 2.354,0.436 2.184,1.93 -0.072,0.648 -0.192,1.262 -0.307,1.878 0.217,0.06 0.41,0.176 0.586,0.315 0.269,0.214 0.465,0.517 0.555,0.904 0.039,0.175 0.066,0.36 0.056,0.567 0.931,-0.096 1.901,0.708 2.108,1.692 0.268,1.269 0.325,2.497 0.26,3.716 -0.017,0.355 -0.042,0.707 -0.078,1.061 0.373,0.026 0.741,0.129 1.033,0.397 0.128,0.121 0.233,0.248 0.357,0.368 0.66,0.657 1.247,1.338 1.829,2.088 0.852,1.102 -0.109,2.404 -1.23,2.526 -0.067,1.21 0.603,2.199 1.555,2.794 0.286,0.178 0.587,0.326 0.909,0.428 0.202,0.199 0.428,0.374 0.671,0.523 1.577,0.966 3.835,0.741 4.823,-1.271 0.087,-0.173 0.185,-0.328 0.251,-0.533 0.02,-0.063 0.035,-0.127 0.057,-0.195 0.071,0.05 0.143,0.1 0.213,0.15 0.1,-0.044 0.201,-0.088 0.302,-0.131 -0.113,-0.2 -0.228,-0.402 -0.344,-0.601 0.003,-0.011 0.008,-0.024 0.01,-0.033 0.816,-2.704 1.358,-5.335 1.749,-8.151 0.053,-0.369 0.011,-0.709 -0.07,-1.036 0.048,0.085 0.096,0.166 0.145,0.248 0.064,-0.188 0.126,-0.377 0.192,-0.563 0.522,0.012 1.058,-0.041 1.56,0.064 0.362,0.075 0.67,0.378 1.007,0.569 1.625,0.925 3.29,1.781 4.846,2.807 0.474,0.315 0.647,1.091 0.945,1.662 0.179,0.337 0.253,0.814 0.529,1.004 1.717,1.18 2.631,2.812 3.489,4.707 0.986,2.183 3.135,3.82 3.076,6.529 -0.018,0.866 0.087,1.734 0.003,2.587 -0.08,0.838 -0.221,1.701 -0.512,2.482 -0.622,1.653 -1.086,3.469 -2.124,4.831 C 15.565,-2.827 14.273,-1.366 13.8,0.775 13.228,3.33 11.313,4.231 9.627,2.556 8.139,1.077 6.215,2.453 4.987,1.104 3.853,2.061 2.872,1.536 1.801,1.125 1.602,1.047 1.401,0.973 1.192,0.913 0.381,0.681 0.051,0.398 0,0 m -43.541,-23.791 c 0.795,-1.412 1.737,-1.151 3.056,-1.068 -0.166,1.051 -0.31,1.949 -0.45,2.845 0.119,0.029 0.238,0.063 0.359,0.096 0.457,-1.183 0.92,-2.363 1.467,-3.763 -0.731,-0.009 -1.381,-0.021 -2.144,-0.033 0.096,-0.439 0.115,-0.77 0.239,-1.054 0.254,-0.572 0.55,-1.137 0.827,-1.701 0.325,-0.658 0.63,-1.32 0.827,-2.016 0.007,-0.029 0.012,-0.054 0.02,-0.08 -0.379,0.201 -0.851,0.183 -1.237,-0.035 -0.041,0.338 -0.188,0.567 -0.379,0.73 0.061,0.186 0.123,0.403 0.186,0.554 -0.731,0.343 -1.356,0.632 -2.023,0.944 -0.074,0.035 -0.149,0.072 -0.231,0.107 0.004,-0.021 0.004,-0.037 0.005,-0.062 0.011,-0.182 0.005,-0.341 0.055,-0.478 0.069,-0.195 0.196,-0.368 0.504,-0.918 -0.894,0.35 -1.285,0.932 -1.485,1.584 -0.428,1.382 0.008,3.074 -1.635,3.573 0.368,1.331 1.579,1.594 2.039,0.775 m 11.74,-11.805 c -0.007,0.237 -0.016,0.472 -0.026,0.707 0.147,-0.191 0.279,-0.395 0.378,-0.624 -0.116,-0.029 -0.234,-0.057 -0.352,-0.083 m 0.219,-1.213 c -0.067,-0.068 -0.154,-0.134 -0.21,-0.199 0,0.033 0.001,0.069 0.002,0.105 -0.003,0.147 10e-4,0.298 -0.003,0.446 0.152,-0.028 0.311,-0.053 0.497,-0.083 -0.119,-0.092 -0.195,-0.18 -0.286,-0.269"
             style="fill:#c41e67;fill-opacity:1;fill-rule:nonzero;stroke:none"
             id="path214"
             inkscape:connector-curvature="0" /></g><g
           id="g216"
           transform="translate(126.7021,423.1104)"><path
             d="m 0,0 c 0.514,-0.429 1.024,-0.837 1.525,-1.257 0.764,-0.639 1.496,-1.307 2.136,-2.141 0.242,-0.318 0.47,-0.56 0.696,-0.773 1.144,-1.067 2.147,-0.82 3.759,0.505 0.341,0.279 0.706,0.522 1.06,0.784 -1.748,-2.592 -1.372,-6.233 0.803,-8.032 1.549,-1.277 2.85,-2.876 4.199,-4.389 0.24,-0.269 0.487,-0.54 0.733,-0.807 0.251,-0.278 0.499,-0.556 0.744,-0.838 0.545,-0.639 1.053,-1.304 1.428,-2.028 0.816,-1.577 1.872,-2.635 3.638,-3.191 1.263,0.956 2.564,1.942 3.997,3.03 0.061,0.044 0.114,0.083 0.172,0.131 -0.003,-0.16 -0.049,-0.29 -0.086,-0.428 -0.031,-0.12 -0.064,-0.239 -0.117,-0.343 -0.026,-0.053 -0.06,-0.1 -0.09,-0.15 -0.623,-1 -2.032,-1.46 -1.969,-2.709 0.007,-0.139 -0.001,-0.272 0.05,-0.434 0.642,0.251 1.253,0.489 1.866,0.729 0.39,0.154 0.783,0.304 1.18,0.462 0.817,0.319 1.657,0.644 2.575,1.004 -0.888,-0.966 -1.82,-1.56 -2.018,-2.239 -0.012,-0.044 -0.049,-0.082 -0.057,-0.123 -0.203,-1.408 -0.251,-3.101 0.911,-4.14 0.885,-0.79 1.971,-1.351 3.039,-1.926 0.296,-0.161 0.595,-0.323 0.885,-0.488 0.113,-0.069 0.348,0.105 0.536,0.13 0.812,0.106 1.625,0.201 2.574,0.316 0.837,-2.869 1.596,-5.652 4.876,-6.48 0.581,0.548 0.968,1.048 1.2,1.528 0.576,1.197 0.08,2.243 -1.582,3.408 -0.365,0.254 -0.697,0.564 -0.991,0.89 -0.076,0.079 0.055,0.336 0.095,0.532 0.433,-0.268 0.809,-0.497 1.302,-0.799 0.05,0.427 0.159,0.674 0.08,0.798 -0.678,1.06 -1.119,2.023 -0.059,3.202 0.31,0.343 0.256,1.541 -0.08,1.837 -1.448,1.268 -1.822,2.922 -2.27,4.656 -0.428,1.672 -1.648,2.433 -3.499,2.609 -1.508,0.139 -1.768,2.644 -3.699,2.504 -0.053,0 -0.108,0.053 -0.22,0.111 0.39,1.285 -0.094,2.21 -1.131,3.076 -0.359,0.296 -0.705,0.603 -1.038,0.918 -1.12,1.051 -2.098,2.205 -2.943,3.453 -0.898,1.333 -1.651,2.779 -2.235,4.363 -0.017,0.055 -0.056,0.103 -0.079,0.156 -0.324,0.779 -0.889,1.481 -1.52,2.145 C 19.94,0.022 19.486,0.468 19.062,0.91 18.739,1.243 17.848,1.381 17.42,1.184 16.969,0.975 16.541,0.716 16.113,0.46 15.571,0.135 15.033,-0.206 14.51,-0.56 c -0.138,-0.096 -0.278,-0.184 -0.415,-0.275 -0.43,-0.29 -0.746,-0.752 -1.115,-1.138 -0.148,0.125 -0.298,0.249 -0.446,0.37 0.359,0.494 0.634,1.089 1.092,1.461 0.233,0.188 0.405,0.409 0.594,0.619 1.02,1.141 1.437,2.548 1.394,3.974 -0.05,1.667 -0.671,3.337 -1.533,4.563 -0.456,0.647 -0.854,1.335 -1.279,2.009 -1.043,1.661 -1.947,3.432 -3.159,4.962 -1.661,2.093 -3.613,3.927 -5.562,5.778 -2.071,1.964 -4.273,2.787 -6.818,3.142 -2.645,0.374 -5.499,-2.33 -5.877,-4.976 -0.217,-1.544 0.39,-3.048 0.176,-4.41 C -8.819,13.083 -8.683,10.868 -7.719,8.862 -7.338,8.065 -6.84,7.296 -6.173,6.564 -5.75,6.102 -5.337,5.622 -4.924,5.148 -4.543,4.711 -4.162,4.279 -3.781,3.846 -2.591,2.483 -1.379,1.155 -0.008,0.006 -0.007,0.005 -0.002,0.002 0,0"
             style="fill:#c41e67;fill-opacity:1;fill-rule:nonzero;stroke:none"
             id="path218"
             inkscape:connector-curvature="0" /></g><g
           id="g220"
           transform="translate(218.1777,380.4316)"><path
             d="m 0,0 c 0.471,-7.115 0.234,-15.34 0.7,-21.928 0.449,-6.354 3.828,-8.78 6.274,-15.066 2.57,-6.599 3.167,-7.985 9.01,-12.497 3.811,-2.945 11.203,-7.737 13.384,-12.072 13.334,3.212 0.401,11.877 2.338,19.467 0.572,2.241 5.966,4.793 6.98,7.642 1.549,4.337 0.012,9.177 -1.927,13.152 -1.407,2.883 -4.948,5.838 -5.195,9.115 -0.239,3.173 5.112,5.331 1.334,7.456 -6.588,3.708 -7.684,-12.294 -11.741,-13.994 -4.979,4.82 -9.463,14.185 -15.367,17.439"
             style="fill:#c41e67;fill-opacity:1;fill-rule:nonzero;stroke:none"
             id="path222"
             inkscape:connector-curvature="0" /></g><g
           id="g224"
           transform="translate(203.0488,352.7783)"><path
             d="m 0,0 c 4.572,0.104 15.645,-12.925 15.14,-3.287 -0.173,3.359 -4.046,6.016 -3.639,9.551 0.222,1.916 2.665,3.531 2.568,5.801 -0.114,2.721 -3.026,4.765 -3.668,7.48 -0.589,2.489 0.75,4.279 0.467,6.607 -0.609,5.032 -5.911,11.323 -8.846,15.437 -2.043,-0.86 -3.517,-5.82 -4.145,-7.984 -1.364,-4.693 0.343,-6.834 1.731,-11.512 1.599,-5.389 0.368,-3.691 -4.087,-6.269 -4.223,-2.441 -4.333,-3.938 -3.363,-8.387"
             style="fill:#c41e67;fill-opacity:1;fill-rule:nonzero;stroke:none"
             id="path226"
             inkscape:connector-curvature="0" /></g><g
           id="g228"
           transform="translate(192.1821,188.3975)"><path
             d="m 0,0 c 1.986,-21.937 -14.188,-41.332 -36.125,-43.318 -21.938,-1.987 -41.332,14.187 -43.318,36.126 -1.987,21.937 14.187,41.332 36.125,43.318 C -21.38,38.112 -1.986,21.938 0,0"
             style="fill:#ffffff;fill-opacity:1;fill-rule:nonzero;stroke:none"
             id="path230"
             inkscape:connector-curvature="0" /></g><g
           id="g232"
           transform="translate(183.3086,187.5947)"><path
             d="m 0,0 c 1.542,-17.037 -11.018,-32.099 -28.055,-33.642 -17.037,-1.543 -32.099,11.018 -33.641,28.055 -1.543,17.037 11.018,32.099 28.055,33.642 C -16.604,29.598 -1.542,17.037 0,0 Z"
             style="fill:none;stroke:#231f20;stroke-width:5;stroke-linecap:butt;stroke-linejoin:miter;stroke-miterlimit:10;stroke-dasharray:none;stroke-opacity:1"
             id="path234"
             inkscape:connector-curvature="0" /></g></g></g></g></svg>